<?xml version="1.0" encoding="UTF-8"?>
<svg id="Gruppo_1" data-name="Gruppo 1" class="polinetwork-logo"
    xmlns="http://www.w3.org/2000/svg" viewBox="0 0 648 648">
    <path d="M324,0C145.06,0,0,145.06,0,324s145.06,324,324,324,324-145.06,324-324S502.94,0,324,0Zm153.82,263.9c.59-.39,1.25-.57,1.91-.57,1.14,0,2.25,.55,2.92,1.57l.04,.06c.06,.09,.12,.19,.17,.28,.07,.08,.13,.17,.19,.26l.03,.05c1.06,1.62,.6,3.79-1.02,4.84-.59,.39-1.25,.57-1.91,.57-1.14,0-2.26-.56-2.93-1.59,0,0,0,0-.01-.02l-.03-.05c-.06-.09-.11-.18-.16-.27-.07-.08-.13-.17-.19-.26l-.03-.05c-1.06-1.62-.6-3.79,1.02-4.84Zm-7.69-11.77c.59-.39,1.25-.57,1.91-.57,1.14,0,2.25,.55,2.92,1.57l.02,.04s.02,.03,.02,.03c.06,.09,.12,.19,.17,.29,.07,.08,.13,.17,.19,.26l.03,.05c1.06,1.62,.6,3.79-1.02,4.84-.59,.39-1.25,.57-1.91,.57-1.14,0-2.26-.56-2.93-1.59,0,0,0-.01-.02-.02l-.03-.04c-.06-.09-.11-.18-.16-.27-.07-.08-.13-.17-.19-.26l-.03-.05c-1.06-1.62-.6-3.79,1.02-4.84Zm-7.69-11.77c.59-.39,1.25-.57,1.91-.57,1.14,0,2.26,.56,2.93,1.59l.03,.05c.06,.09,.12,.19,.17,.29,.07,.08,.13,.17,.19,.26l.03,.05c1.06,1.62,.6,3.79-1.02,4.84-.59,.39-1.25,.57-1.91,.57-1.14,0-2.26-.56-2.93-1.59,0,0-.01-.02-.02-.03l-.02-.03c-.06-.09-.11-.18-.16-.28-.07-.08-.13-.17-.19-.26l-.03-.05c-1.06-1.62-.6-3.79,1.02-4.84Zm-7.69-11.77c.59-.39,1.25-.57,1.91-.57,1.14,0,2.26,.56,2.93,1.59l.03,.05c.06,.09,.12,.19,.17,.29,.07,.08,.13,.17,.19,.26l.03,.05c1.06,1.62,.6,3.79-1.02,4.84-.59,.39-1.25,.57-1.91,.57-1.14,0-2.26-.56-2.93-1.58h0s-.03-.05-.03-.05c-.06-.09-.12-.19-.17-.29-.07-.08-.13-.17-.19-.26l-.03-.05c-1.06-1.62-.6-3.79,1.02-4.84Zm1.88,110s-.02,0-.04,.01h-.02c-.36,.12-.72,.18-1.07,.18-.1,0-.2,0-.3-.01-.12,.06-.25,.11-.39,.15l-.05,.02c-.36,.12-.72,.17-1.08,.17-1.48,0-2.85-.94-3.33-2.42-.6-1.84,.41-3.81,2.25-4.41,0,0,.02,0,.04-.01h.03c.35-.12,.71-.18,1.07-.18,.1,0,.2,0,.3,.01,.12-.06,.25-.11,.39-.15l.05-.02c.36-.12,.72-.17,1.08-.17,1.48,0,2.85,.94,3.33,2.42,.6,1.84-.41,3.81-2.25,4.41Zm-9.57-121.76c.59-.39,1.25-.57,1.91-.57,1.14,0,2.26,.56,2.93,1.58v.02s.03,.03,.03,.03c.06,.09,.12,.19,.17,.29,.07,.08,.13,.17,.19,.26l.03,.05c1.06,1.62,.6,3.79-1.02,4.84-.59,.39-1.25,.57-1.91,.57-1.14,0-2.26-.56-2.93-1.59l-.03-.05c-.06-.09-.12-.19-.17-.29-.07-.08-.13-.17-.19-.26l-.03-.05c-1.06-1.62-.6-3.79,1.02-4.84Zm-3.8,126.1h-.01s-.04,.02-.04,.02c-.36,.12-.72,.17-1.08,.17-.1,0-.2,0-.3-.01-.12,.06-.25,.11-.39,.15l-.05,.02c-.36,.12-.72,.17-1.08,.17-1.48,0-2.85-.94-3.33-2.42-.6-1.83,.4-3.8,2.23-4.41h.04s.03-.02,.03-.02c.36-.12,.72-.17,1.08-.17,.1,0,.2,0,.3,.01,.12-.06,.25-.11,.39-.15l.05-.02c.36-.12,.72-.17,1.08-.17,1.48,0,2.85,.94,3.33,2.42,.6,1.84-.41,3.81-2.24,4.41Zm-3.89-137.87c.59-.39,1.25-.57,1.91-.57,1.14,0,2.26,.56,2.93,1.59,0,0,0,.01,.02,.03l.02,.03c.06,.09,.11,.18,.16,.27,.07,.08,.13,.17,.19,.26l.03,.05c1.06,1.62,.6,3.79-1.02,4.84-.59,.39-1.25,.57-1.91,.57-1.14,0-2.26-.56-2.93-1.59l-.03-.05c-.06-.09-.12-.19-.17-.29-.07-.08-.13-.17-.19-.26l-.03-.05c-1.06-1.62-.6-3.79,1.02-4.84Zm-7.69-11.77c.59-.39,1.25-.57,1.91-.57,1.14,0,2.26,.56,2.93,1.59,0,0,0,0,.01,.02l.03,.04c.06,.09,.11,.18,.16,.27,.07,.08,.13,.17,.19,.26l.03,.05c1.06,1.62,.6,3.79-1.02,4.84-.59,.39-1.25,.57-1.91,.57-1.14,0-2.25-.55-2.92-1.57l-.04-.07c-.06-.09-.11-.19-.17-.28-.07-.08-.13-.17-.19-.26l-.03-.05c-1.06-1.62-.6-3.79,1.02-4.84Zm-1.8,153.98s-.03,.01-.05,.01h-.01c-.36,.12-.72,.17-1.08,.17-.1,0-.2,0-.3-.01-.12,.06-.25,.11-.39,.15l-.05,.02c-.36,.12-.72,.17-1.08,.17-1.48,0-2.85-.94-3.33-2.42-.6-1.84,.41-3.81,2.25-4.41,0,0,0,0,.02,0l.05-.02c.35-.11,.71-.17,1.06-.17,.1,0,.2,0,.3,.01,.12-.06,.25-.11,.39-.15l.05-.02c.36-.12,.72-.17,1.08-.17,1.48,0,2.85,.94,3.33,2.42,.6,1.84-.41,3.81-2.25,4.41Zm-1.04-164.73s0,0,0,.01l.03,.05c.06,.09,.11,.18,.16,.27,.07,.08,.13,.17,.19,.26l.03,.05c1.06,1.62,.6,3.79-1.02,4.84-.59,.39-1.25,.57-1.91,.57-1.14,0-2.25-.55-2.93-1.57l-.04-.06c-.06-.09-.12-.19-.17-.29-.07-.08-.13-.17-.19-.26l-.03-.05c-1.06-1.62-.6-3.79,1.02-4.84,.59-.39,1.25-.57,1.91-.57,1.14,0,2.26,.56,2.93,1.59Zm80.66,180.34c-6.78,0-13.21-1.5-18.95-4.18l-117.72,123.09c3.27,5.7,5.15,12.29,5.15,19.33,0,21.47-17.41,38.88-38.88,38.88s-38.88-17.41-38.88-38.88c0-.38,.02-.75,.03-1.12l-122.2-45.52c-5.68,7.76-14.84,12.8-25.19,12.8-17.23,0-31.2-13.97-31.2-31.2s13.97-31.2,31.2-31.2,31.2,13.97,31.2,31.2c0,1.5-.11,2.98-.32,4.42l119.9,44.66c5.91-13.12,18.88-22.36,34.08-22.89l13.8-90.42c-.42,.66-1.05,1.19-1.85,1.45,0,0-.02,0-.03,.01h-.03c-.35,.12-.71,.18-1.07,.18-.1,0-.2,0-.3-.01-.12,.06-.25,.11-.39,.15l-.05,.02c-.36,.12-.72,.17-1.08,.17-1.48,0-2.85-.94-3.33-2.42-.6-1.84,.41-3.81,2.25-4.41h0s.05-.02,.05-.02c.36-.12,.72-.17,1.08-.17,.1,0,.2,0,.3,.01,.12-.06,.25-.11,.39-.15l.05-.02c.36-.12,.72-.17,1.08-.17,1.48,0,2.85,.94,3.33,2.42,.02,.05,.02,.1,.03,.16l30.37-198.98c-1-.37-1.97-.8-2.92-1.26l-51.7,63.09c2.63,3.8,4.18,8.41,4.18,13.38,0,12.99-10.53,23.52-23.52,23.52-4.72,0-9.11-1.4-12.79-3.79-.12,.27-.27,.53-.46,.77l-.05,.06s-.08,.09-.11,.13c0,0-.01,.02-.02,.03l-.69,.83c-.66,.59-1.5,.9-2.35,.9-.79,0-1.57-.26-2.23-.8-1.49-1.23-1.7-3.44-.47-4.93l.03-.04s.08-.09,.12-.14c0,0,.01-.02,.02-.03l.69-.83c.15-.13,.31-.25,.47-.35-3.54-4.12-5.69-9.47-5.69-15.32,0-.8,.04-1.59,.12-2.36l-83.25-33.98c-6.72,10.27-18.16,17.15-31.24,17.59,.29,.56,.44,1.2,.38,1.87v.05c-.02,.22-.06,.43-.11,.63h0c-.15,1.84-1.68,3.23-3.49,3.23-.09,0-.19,0-.28-.01-1.93-.15-3.36-1.84-3.21-3.77v-.05c.02-.22,.06-.43,.11-.63h0c.05-.59,.25-1.12,.54-1.59-19.23-2.34-34.14-18.72-34.14-38.58,0-21.47,17.41-38.88,38.88-38.88s38.88,17.41,38.88,38.88c0,2.52-.25,4.97-.7,7.35l83.82,34.21c4.29-4.6,10.41-7.49,17.2-7.49,2.55,0,5,.41,7.3,1.16l52.22-63.73c-3.92-5.29-6.24-11.83-6.24-18.92,0-17.56,14.24-31.8,31.8-31.8s31.8,14.24,31.8,31.8c0,16.22-12.15,29.6-27.85,31.55l-44.71,292.86c3.77,1.41,7.25,3.39,10.36,5.82l115.14-120.39c-4.42-4.36-7.9-9.63-10.12-15.51-.35,.11-.7,.16-1.04,.16-1.48,0-2.85-.94-3.33-2.42-.6-1.84,.41-3.81,2.25-4.41h0s.05-.02,.05-.02c.05-.02,.1-.02,.15-.04-.54-2.7-.82-5.48-.82-8.33,0-15.71,8.52-29.46,21.28-37.06-.68-.25-1.29-.68-1.72-1.32l-.05-.07s0,0,0,0c-.06-.09-.12-.19-.17-.29-.07-.08-.13-.17-.19-.26l-.03-.05c-1.06-1.62-.6-3.79,1.02-4.84,.59-.39,1.25-.57,1.91-.57,1.14,0,2.25,.55,2.93,1.57l.03,.05s0,0,0,0c.06,.09,.12,.19,.17,.29,.07,.08,.13,.17,.19,.26l.03,.05c.57,.87,.69,1.89,.44,2.82,5.58-2.5,11.78-3.9,18.31-3.9,24.39,0,44.16,19.4,44.16,43.32s-19.77,43.32-44.16,43.32ZM165.17,252.64c.09,0,.19,0,.28,.01,1.92,.15,3.36,1.83,3.21,3.75v.07c-.02,.22-.06,.43-.11,.63h0c-.15,1.84-1.68,3.23-3.49,3.23-.09,0-.19,0-.28-.01-1.92-.15-3.35-1.83-3.21-3.74v-.1c.03-.21,.06-.42,.11-.61h0c.15-1.84,1.68-3.23,3.49-3.23Zm-2.48-10.09v-.05c.02-.22,.06-.43,.11-.63h0c.15-1.84,1.68-3.23,3.49-3.23,.09,0,.19,0,.28,.01,1.93,.15,3.36,1.84,3.21,3.77v.05c-.02,.22-.06,.43-.11,.63h0c-.15,1.84-1.68,3.23-3.49,3.23-.09,0-.19,0-.28-.01-1.93-.15-3.36-1.84-3.21-3.77Zm1.36,24.1c.09,0,.19,0,.28,.01,1.92,.15,3.35,1.83,3.21,3.74v.1c-.03,.21-.06,.41-.12,.61h0c-.15,1.84-1.68,3.23-3.49,3.23-.09,0-.19,0-.28-.01-1.92-.15-3.36-1.83-3.21-3.76v-.07c.02-.22,.06-.43,.11-.63h0c.15-1.84,1.68-3.23,3.48-3.23Zm-1.12,14.01c.09,0,.19,0,.28,.01,1.93,.15,3.36,1.84,3.21,3.77v.05c-.02,.22-.06,.43-.11,.63h0c-.15,1.84-1.68,3.23-3.49,3.23-.09,0-.19,0-.28-.01-1.93-.15-3.36-1.84-3.21-3.77v-.05c.02-.22,.06-.43,.11-.63h0c.15-1.84,1.68-3.23,3.49-3.23Zm-1.12,14.01c.09,0,.19,0,.28,.01,1.93,.15,3.36,1.84,3.21,3.77v.05c-.02,.22-.06,.43-.11,.63h0c-.15,1.84-1.68,3.23-3.49,3.23-.09,0-.19,0-.28-.01-1.93-.15-3.36-1.84-3.21-3.77v-.05c.02-.22,.06-.43,.11-.63h0c.15-1.84,1.68-3.23,3.49-3.23Zm-1.12,14.01c.09,0,.19,0,.28,.01,1.92,.15,3.36,1.83,3.21,3.76v.07c-.02,.22-.06,.43-.11,.63h0c-.15,1.84-1.68,3.23-3.49,3.23-.09,0-.19,0-.28-.01-1.92-.15-3.35-1.83-3.21-3.74v-.1c.03-.21,.06-.41,.11-.61h0c.15-1.84,1.68-3.23,3.49-3.23Zm-1.12,14.01c.09,0,.19,0,.28,.01,1.92,.15,3.35,1.83,3.21,3.74v.1c-.03,.21-.06,.42-.11,.61h0c-.15,1.84-1.68,3.23-3.49,3.23-.09,0-.19,0-.28-.01-1.92-.15-3.36-1.83-3.21-3.75v-.07c.02-.22,.06-.43,.11-.63h0c.15-1.84,1.68-3.23,3.48-3.23Zm-1.12,14.01c.09,0,.19,0,.28,.01,1.93,.15,3.36,1.84,3.21,3.77v.05c-.02,.22-.06,.43-.11,.63h0c-.15,1.84-1.68,3.23-3.49,3.23-.09,0-.19,0-.28-.01-1.93-.15-3.36-1.84-3.21-3.77v-.05c.02-.22,.06-.43,.11-.63h0c.15-1.84,1.68-3.23,3.48-3.23Zm-1.12,14.01c.09,0,.19,0,.28,.01,1.93,.15,3.36,1.84,3.21,3.77v.05c-.02,.22-.06,.43-.11,.63h0c-.15,1.84-1.68,3.23-3.48,3.23-.09,0-.19,0-.28-.01-1.93-.15-3.36-1.84-3.21-3.77v-.05c.02-.22,.06-.43,.11-.63h0c.15-1.84,1.68-3.23,3.49-3.23Zm-1.12,14.01c.09,0,.19,0,.28,.01,1.92,.15,3.36,1.83,3.21,3.76v.06s0,0,0,0c-.02,.22-.05,.43-.11,.63h0c-.15,1.84-1.68,3.23-3.49,3.23-.09,0-.19,0-.28-.01-1.92-.15-3.35-1.83-3.21-3.74v-.1c.03-.21,.06-.42,.11-.61h0c.15-1.84,1.68-3.23,3.49-3.23Zm-1.12,14.01c.09,0,.19,0,.28,.01,1.92,.15,3.35,1.83,3.21,3.74v.1c-.03,.21-.06,.42-.11,.61h0c-.15,1.84-1.68,3.23-3.49,3.23-.09,0-.19,0-.28-.01-1.92-.15-3.36-1.83-3.21-3.75v-.07c.02-.22,.06-.42,.11-.63h0c.15-1.84,1.68-3.23,3.49-3.23Zm-1.12,14.01c.09,0,.19,0,.28,.01,1.93,.15,3.36,1.84,3.21,3.77v.05c-.02,.22-.06,.43-.11,.63h0c-.15,1.84-1.68,3.23-3.49,3.23-.09,0-.19,0-.28-.01-1.93-.15-3.36-1.84-3.21-3.77v-.05c.02-.22,.06-.43,.11-.63h0c.15-1.84,1.68-3.23,3.49-3.23Zm18.87,10.12h0s0-.01,0-.01h0s.02-.03,.02-.03c.04-.05,.08-.1,.12-.14,0,0,.01-.02,.02-.03l.69-.83c.66-.59,1.5-.9,2.35-.9,.79,0,1.57,.26,2.23,.8,1.49,1.23,1.7,3.44,.47,4.93,0,0-.01,.01-.02,.03l-.02,.02s-.08,.09-.12,.14c0,0-.01,.02-.02,.03l-.69,.83c-.66,.59-1.5,.9-2.35,.9-.78,0-1.57-.26-2.23-.8-1.49-1.23-1.7-3.44-.47-4.93Zm26.88,11.66c.1,0,.2,0,.3,.01,.12-.06,.25-.11,.39-.15l.05-.02c.36-.12,.72-.17,1.08-.17,1.48,0,2.85,.94,3.33,2.42,.6,1.84-.41,3.81-2.24,4.41h-.02s-.04,.02-.04,.02c-.36,.12-.72,.17-1.08,.17-.1,0-.2,0-.3-.01-.12,.06-.25,.11-.39,.15l-.05,.02c-.36,.12-.72,.17-1.08,.17-1.48,0-2.85-.94-3.33-2.42-.6-1.83,.41-3.8,2.24-4.41h.03s.03-.02,.03-.02c.36-.12,.72-.17,1.08-.17Zm-.02-44.17l.03-.04s.08-.1,.12-.14c0,0,.01-.02,.02-.03l.69-.83c.66-.59,1.5-.9,2.35-.9,.79,0,1.57,.26,2.23,.8,1.49,1.23,1.7,3.43,.48,4.92l-.02,.03s-.02,.03-.02,.03c-.04,.05-.08,.1-.12,.14,0,0-.01,.02-.02,.03l-.69,.83c-.66,.59-1.5,.9-2.35,.9-.79,0-1.57-.26-2.23-.8-1.49-1.23-1.7-3.44-.47-4.93Zm-3.05,14.62l-.04,.04s-.08,.1-.12,.14c0,0-.01,.02-.02,.03l-.69,.83c-.66,.59-1.5,.9-2.35,.9-.79,0-1.57-.26-2.23-.8-1.49-1.23-1.7-3.44-.47-4.93l.04-.04s.08-.1,.12-.14c0,0,.01-.02,.02-.03l.69-.83c.66-.59,1.5-.9,2.35-.9,.78,0,1.57,.26,2.23,.8,1.49,1.23,1.7,3.44,.47,4.93Zm-5.15,35.98c.6,1.84-.41,3.81-2.25,4.41,0,0-.02,0-.04,.01h-.02c-.36,.12-.72,.18-1.07,.18-.1,0-.2,0-.3-.01-.12,.06-.25,.11-.39,.15l-.05,.02c-.36,.12-.72,.17-1.08,.17-1.48,0-2.85-.94-3.33-2.42-.6-1.84,.41-3.81,2.25-4.41,0,0,0,0,.02,0l.05-.02c.35-.11,.71-.17,1.06-.17,.1,0,.2,0,.3,.01,.12-.06,.25-.11,.39-.15l.05-.02c.36-.12,.72-.17,1.08-.17,1.48,0,2.85,.94,3.33,2.42Zm-3.8-25.14l-.03,.04s-.08,.1-.12,.14c0,0-.01,.02-.02,.03l-.69,.83c-.66,.59-1.5,.9-2.35,.9-.79,0-1.57-.26-2.23-.8-1.49-1.23-1.7-3.44-.47-4.93l.03-.04s.08-.09,.12-.14c0,0,.01-.02,.02-.03l.69-.83c.66-.59,1.5-.9,2.35-.9,.79,0,1.57,.26,2.23,.8,1.49,1.23,1.7,3.44,.47,4.93Zm38.76,10.03c.1,0,.2,0,.3,.01,.12-.06,.25-.11,.39-.15l.05-.02c.36-.12,.72-.17,1.08-.17,1.48,0,2.85,.94,3.33,2.42,.6,1.83-.41,3.8-2.24,4.41h-.03s-.03,.02-.03,.02c-.36,.12-.72,.17-1.08,.17-.1,0-.2,0-.3-.01-.12,.06-.25,.11-.39,.15l-.05,.02c-.36,.12-.72,.17-1.08,.17-1.48,0-2.85-.94-3.33-2.42-.6-1.84,.41-3.81,2.25-4.41h0s.05-.02,.05-.02c.36-.12,.72-.17,1.08-.17Zm.08-67.98l.03-.04s.02-.02,.02-.02c.04-.05,.08-.1,.12-.14,0,0,.01-.02,.02-.03l.69-.83c.66-.59,1.5-.9,2.35-.9,.79,0,1.57,.26,2.23,.8,1.49,1.23,1.7,3.44,.47,4.93l-.03,.04s-.08,.1-.12,.14c0,0-.01,.02-.02,.03l-.69,.83c-.66,.59-1.5,.9-2.35,.9-.79,0-1.57-.26-2.23-.8-1.48-1.23-1.7-3.42-.48-4.91Zm-3.03,14.6s-.01,.01-.02,.02l-.02,.02s-.08,.09-.12,.14c0,0-.01,.02-.02,.03l-.69,.83c-.66,.59-1.5,.9-2.35,.9-.79,0-1.57-.26-2.23-.8-1.49-1.23-1.7-3.43-.48-4.92l.05-.06s.07-.09,.11-.13c0,0,.01-.02,.02-.03l.69-.83c.66-.59,1.5-.9,2.35-.9,.79,0,1.57,.26,2.23,.8,1.49,1.23,1.7,3.44,.47,4.93Zm-5.27,59.81c.6,1.84-.41,3.81-2.25,4.41,0,0-.02,0-.03,.01h-.03c-.35,.12-.71,.18-1.07,.18-.1,0-.2,0-.3-.01-.12,.06-.25,.11-.39,.15l-.05,.02c-.36,.12-.72,.17-1.08,.17-1.48,0-2.85-.94-3.33-2.42-.6-1.84,.41-3.81,2.25-4.41,0,0,.02,0,.04-.01h.03c.36-.12,.72-.18,1.07-.18,.1,0,.2,0,.3,.01,.12-.06,.25-.11,.39-.15l.05-.02c.36-.12,.72-.17,1.08-.17,1.48,0,2.85,.94,3.33,2.42Zm-3.68-48.98l-.05,.06s-.08,.09-.12,.13c0,0-.01,.02-.02,.03l-.69,.83c-.66,.59-1.5,.9-2.35,.9-.79,0-1.57-.26-2.23-.8-1.49-1.23-1.7-3.44-.47-4.93,0,0,0,0,0,0l.04-.04s.08-.09,.12-.14c0,0,.01-.02,.02-.03l.69-.83c.66-.59,1.5-.9,2.35-.9,.79,0,1.57,.26,2.23,.8,1.49,1.23,1.7,3.43,.47,4.92Zm38.64,33.87c.1,0,.2,0,.3,.01,.12-.06,.25-.11,.39-.15l.05-.02c.36-.12,.72-.17,1.08-.17,1.48,0,2.85,.94,3.33,2.42,.6,1.84-.41,3.81-2.25,4.41l-.05,.02c-.36,.12-.72,.17-1.08,.17-.1,0-.2,0-.3-.01-.12,.06-.25,.11-.39,.15l-.05,.02c-.36,.12-.72,.17-1.08,.17-1.48,0-2.85-.94-3.33-2.42-.6-1.84,.41-3.81,2.25-4.41,0,0,0,0,.02,0l.06-.02c.35-.11,.71-.17,1.06-.17Zm.2-91.82l.05-.06s.07-.09,.11-.13c0,0,.01-.02,.02-.03l.69-.83c.66-.59,1.5-.9,2.35-.9,.79,0,1.57,.26,2.23,.8,1.49,1.23,1.7,3.44,.47,4.93,0,0,0,0-.01,.02l-.02,.03s-.08,.09-.12,.14c0,0-.01,.02-.02,.03l-.69,.83c-.66,.59-1.5,.9-2.35,.9-.78,0-1.57-.26-2.23-.8-1.49-1.23-1.7-3.43-.48-4.92Zm-3.04,14.61l-.05,.06s-.08,.09-.11,.13c0,0-.01,.02-.02,.03l-.69,.83c-.66,.59-1.5,.9-2.35,.9-.78,0-1.57-.26-2.23-.8-1.49-1.23-1.7-3.44-.47-4.93,0,0,0,0,0,0l.03-.04s.08-.09,.12-.14c0,0,.01-.02,.02-.03l.69-.83c.66-.59,1.5-.9,2.35-.9,.78,0,1.57,.26,2.23,.8,1.49,1.23,1.7,3.43,.47,4.92Zm-5.39,83.65c.6,1.84-.41,3.81-2.25,4.41l-.05,.02c-.36,.12-.72,.17-1.08,.17-.1,0-.2,0-.3-.01-.12,.06-.25,.11-.39,.15l-.05,.02c-.36,.12-.72,.17-1.08,.17-1.48,0-2.85-.94-3.33-2.42-.59-1.83,.4-3.8,2.23-4.4l.07-.02s0,0,0,0c.36-.12,.72-.17,1.08-.17,.1,0,.2,0,.3,.01,.12-.06,.25-.11,.39-.15l.05-.02c.36-.12,.72-.17,1.08-.17,1.48,0,2.85,.94,3.33,2.42Zm-3.57-72.8l-.03,.04s-.08,.09-.12,.14c0,0-.01,.02-.02,.03l-.69,.83c-.66,.59-1.5,.9-2.35,.9-.79,0-1.57-.26-2.23-.8-1.49-1.23-1.7-3.44-.47-4.93l.03-.04s.08-.1,.12-.14c0,0,.01-.02,.02-.03l.69-.83c.66-.59,1.5-.9,2.35-.9,.78,0,1.57,.26,2.23,.8,1.49,1.23,1.7,3.44,.47,4.93Zm38.52,57.69c.1,0,.2,0,.3,.01,.12-.06,.25-.11,.39-.15l.05-.02c.36-.12,.72-.17,1.08-.17,1.48,0,2.85,.94,3.33,2.42,.6,1.84-.41,3.81-2.25,4.41l-.05,.02c-.36,.12-.72,.17-1.08,.17-.1,0-.2,0-.3-.01-.12,.06-.25,.11-.39,.15l-.05,.02c-.36,.12-.72,.17-1.08,.17-1.48,0-2.85-.94-3.33-2.42-.6-1.84,.41-3.81,2.25-4.41,0,0,.02,0,.03-.01h.03c.35-.12,.71-.18,1.07-.18Zm.32-115.66h0s.03-.05,.03-.05c.04-.05,.08-.09,.12-.14,0,0,.01-.02,.02-.03l.69-.83c.66-.59,1.5-.9,2.35-.9,.79,0,1.57,.26,2.23,.8,1.49,1.23,1.7,3.42,.48,4.91l-.06,.07s-.07,.08-.11,.13c0,0-.01,.02-.02,.03l-.69,.83c-.66,.59-1.5,.9-2.35,.9-.79,0-1.57-.26-2.23-.8-1.49-1.23-1.7-3.43-.47-4.92Zm-3.03,14.6l-.07,.08s-.07,.08-.11,.12c0,0-.01,.02-.02,.03l-.69,.83c-.66,.59-1.5,.9-2.35,.9-.79,0-1.57-.26-2.23-.8-1.49-1.23-1.7-3.44-.47-4.93,0,0,.02-.03,.03-.04h0c.04-.05,.08-.1,.12-.15,0,0,.01-.02,.02-.03l.69-.83c.66-.59,1.5-.9,2.35-.9,.79,0,1.57,.26,2.23,.8,1.48,1.23,1.7,3.42,.48,4.91Zm-5.52,107.49c.6,1.84-.41,3.81-2.25,4.41,0,0-.05,.02-.05,.02h0c-.36,.12-.72,.17-1.08,.17-.1,0-.2,0-.3-.01-.12,.06-.25,.11-.39,.15l-.05,.02c-.36,.12-.72,.17-1.08,.17-1.48,0-2.85-.94-3.33-2.42-.6-1.83,.4-3.8,2.23-4.4h.04s.02-.02,.02-.02c.36-.12,.72-.17,1.08-.17,.1,0,.2,0,.3,.01,.12-.06,.25-.11,.39-.15l.05-.02c.36-.12,.72-.17,1.08-.17,1.48,0,2.85,.94,3.33,2.42Zm-3.43-96.66l-.05,.06s0,0,0,0c-.04,.05-.08,.1-.12,.14,0,0-.01,.02-.02,.03l-.69,.83c-.66,.59-1.5,.9-2.35,.9-.78,0-1.57-.26-2.23-.8-1.49-1.23-1.7-3.44-.47-4.93,0,0,0,0,.01-.02l.04-.05s.07-.08,.11-.12c0,0,.01-.02,.02-.03l.69-.83c.66-.59,1.5-.9,2.35-.9,.78,0,1.57,.26,2.23,.8,1.48,1.23,1.7,3.42,.49,4.91Zm23.87,86.08l.05-.02s.03,0,.03,0c.36-.12,.72-.17,1.08-.17,.1,0,.2,0,.3,.01,.12-.06,.25-.11,.39-.15l.05-.02c.36-.12,.72-.17,1.08-.17,1.48,0,2.85,.94,3.33,2.42,.6,1.84-.41,3.81-2.25,4.41,0,0-.03,.01-.05,.02h-.01c-.36,.12-.72,.17-1.08,.17-.1,0-.2,0-.3-.01-.12,.06-.25,.11-.39,.15l-.05,.02c-.36,.12-.72,.17-1.08,.17-1.48,0-2.85-.94-3.33-2.42-.59-1.83,.4-3.8,2.23-4.4Zm13.39-4.35s0,0,.02,0l.05-.02c.35-.11,.71-.17,1.06-.17,.1,0,.2,0,.3,.01,.12-.06,.25-.11,.39-.15l.05-.02c.36-.12,.72-.17,1.08-.17,1.48,0,2.85,.94,3.33,2.42,.6,1.84-.41,3.81-2.24,4.41h-.01s-.05,.02-.05,.02c-.36,.12-.72,.17-1.08,.17-.1,0-.2,0-.3-.01-.12,.06-.25,.11-.39,.15l-.05,.02c-.36,.12-.72,.17-1.08,.17-1.48,0-2.85-.94-3.33-2.42-.6-1.84,.41-3.81,2.25-4.41Zm13.36-4.33h.04s.03-.02,.03-.02c.36-.12,.72-.17,1.08-.17,.1,0,.2,0,.3,.01,.12-.06,.25-.11,.39-.15l.05-.02c.36-.12,.72-.17,1.08-.17,1.48,0,2.85,.94,3.33,2.42,.6,1.84-.41,3.81-2.25,4.41,0,0-.02,0-.04,.01h-.02c-.36,.12-.72,.18-1.07,.18-.1,0-.2,0-.3-.01-.12,.06-.25,.11-.39,.15l-.05,.02c-.36,.12-.72,.17-1.08,.17-1.48,0-2.85-.94-3.33-2.42-.6-1.83,.41-3.8,2.24-4.41Zm13.38-4.34s.02,0,.04-.01h.03c.35-.12,.72-.18,1.07-.18,.1,0,.2,0,.3,.01,.12-.06,.25-.11,.39-.15l.05-.02c.36-.12,.72-.17,1.08-.17,1.48,0,2.85,.94,3.33,2.42,.6,1.84-.41,3.81-2.24,4.41h-.02s-.04,.02-.04,.02c-.36,.12-.72,.17-1.08,.17-.1,0-.2,0-.3-.01-.12,.06-.25,.11-.39,.15l-.05,.02c-.36,.12-.72,.17-1.08,.17-1.48,0-2.85-.94-3.33-2.42-.6-1.84,.41-3.81,2.25-4.41Zm86.37-194.5c-1.14,0-2.26-.56-2.93-1.58l-.02-.03s-.01-.02-.01-.02c-.06-.09-.12-.19-.17-.29-.07-.08-.13-.17-.19-.26l-.03-.05c-1.06-1.62-.6-3.79,1.02-4.84,0,0,0,0,.01,0-.64-1.52-.14-3.32,1.28-4.27l.07-.04s0,0,0,0h0s0,0,0,0l3.83,5.86h0s.03,.05,.05,.07l.03,.05c1.06,1.62,.6,3.79-1.02,4.84-.59,.39-1.25,.57-1.91,.57Zm-2.13,174.78h0s-.05,.02-.05,.02c-.36,.12-.72,.17-1.08,.17-.1,0-.2,0-.3-.01-.12,.06-.25,.11-.39,.15l-.05,.02c-.36,.12-.72,.17-1.08,.17-1.48,0-2.85-.94-3.33-2.42-.59-1.83,.4-3.8,2.23-4.4l.05-.02s.03,0,.03,0c.36-.12,.72-.17,1.08-.17,.1,0,.2,0,.3,.01,.12-.06,.25-.11,.39-.15l.05-.02c.36-.12,.72-.17,1.08-.17,1.48,0,2.85,.94,3.33,2.42,.6,1.84-.41,3.81-2.25,4.41Zm-13.37,4.34s-.05,.02-.05,.02h0c-.36,.12-.72,.17-1.08,.17-.1,0-.2,0-.3-.01-.12,.06-.25,.11-.39,.15l-.05,.02c-.36,.12-.72,.17-1.08,.17-1.48,0-2.85-.94-3.33-2.42-.6-1.84,.41-3.81,2.25-4.41,0,0,.02,0,.03-.01h.04c.35-.12,.71-.18,1.07-.18,.1,0,.2,0,.3,.01,.12-.06,.25-.11,.39-.15l.05-.02c.36-.12,.72-.17,1.08-.17,1.48,0,2.85,.94,3.33,2.42,.6,1.84-.41,3.81-2.25,4.41Zm-13.37,4.34l-.05,.02c-.36,.12-.72,.17-1.08,.17-.1,0-.2,0-.3-.01-.12,.06-.25,.11-.39,.15l-.05,.02c-.36,.12-.72,.17-1.08,.17-1.48,0-2.85-.94-3.33-2.42-.6-1.83,.4-3.8,2.23-4.4h.05s.02-.02,.02-.02c.36-.12,.72-.17,1.08-.17,.1,0,.2,0,.3,.01,.12-.06,.25-.11,.39-.15l.05-.02c.36-.12,.72-.17,1.08-.17,1.48,0,2.85,.94,3.33,2.42,.6,1.84-.41,3.81-2.25,4.41Zm-13.37,4.34l-.05,.02c-.36,.12-.72,.17-1.08,.17-.1,0-.2,0-.3-.01-.12,.06-.25,.11-.39,.15l-.05,.02c-.36,.12-.72,.17-1.08,.17-1.48,0-2.85-.94-3.33-2.42-.6-1.84,.41-3.81,2.25-4.41,0,0,0,0,.01,0l.06-.02c.35-.11,.71-.17,1.06-.17,.1,0,.2,0,.3,.01,.12-.06,.25-.11,.39-.15l.05-.02c.36-.12,.72-.17,1.08-.17,1.48,0,2.85,.94,3.33,2.42,.6,1.84-.41,3.81-2.25,4.41Z"/>
</svg>