<svg width="140" height="40" viewBox="0 0 140 40" fill="none" xmlns="http://www.w3.org/2000/svg">
<rect x="0.5" y="0.5" width="139" height="39" rx="5.5" fill="black" stroke="#DDDDDD"/>
<path d="M39.0337 31H44.811C45.3257 31 45.6743 30.6846 45.6743 30.1948C45.6743 29.7051 45.3257 29.3896 44.811 29.3896H39.9634V19.8521C39.9634 19.2544 39.6064 18.8892 39.0337 18.8892C38.4526 18.8892 38.104 19.2544 38.104 19.8521V30.0371C38.104 30.6348 38.4526 31 39.0337 31ZM47.874 20.9478C48.4551 20.9478 48.9199 20.4829 48.9199 19.9185C48.9199 19.3457 48.4551 18.8975 47.874 18.8975C47.3013 18.8975 46.8364 19.3457 46.8364 19.9185C46.8364 20.4829 47.3013 20.9478 47.874 20.9478ZM47.874 31.1577C48.4136 31.1577 48.7705 30.7842 48.7705 30.2114V23.0645C48.7705 22.4834 48.4136 22.1099 47.874 22.1099C47.3345 22.1099 46.9775 22.4834 46.9775 23.0645V30.2114C46.9775 30.7842 47.3345 31.1577 47.874 31.1577ZM51.5015 31.1577C52.0244 31.1577 52.3979 30.8008 52.3979 30.2114V25.9116C52.3979 24.5586 53.2114 23.6621 54.4731 23.6621C55.7183 23.6621 56.3325 24.3843 56.3325 25.6958V30.2114C56.3325 30.8008 56.7061 31.1577 57.229 31.1577C57.7603 31.1577 58.1338 30.8008 58.1338 30.2114V25.3472C58.1338 23.3467 57.0298 22.1182 55.104 22.1182C53.7593 22.1182 52.8462 22.7158 52.373 23.7119H52.3315V23.0229C52.3315 22.4668 51.9746 22.1099 51.46 22.1099C50.937 22.1099 50.605 22.4668 50.605 23.0146V30.2114C50.605 30.8008 50.9702 31.1577 51.5015 31.1577ZM62.8901 31.1577C64.2266 31.1577 65.1147 30.5684 65.5962 29.5225H65.6377V30.2529C65.6377 30.8008 65.9863 31.1577 66.501 31.1577C67.0156 31.1577 67.356 30.8008 67.356 30.2446V23.0645C67.356 22.4668 66.9907 22.1099 66.4595 22.1099C65.9365 22.1099 65.563 22.4668 65.563 23.0645V27.356C65.563 28.7173 64.7827 29.6138 63.4878 29.6138C62.251 29.6138 61.6201 28.8999 61.6201 27.5718V23.0645C61.6201 22.4668 61.2466 22.1099 60.7236 22.1099C60.1924 22.1099 59.8271 22.4668 59.8271 23.0645V27.9204C59.8271 29.9209 60.9893 31.1577 62.8901 31.1577ZM69.647 31.1577C69.9541 31.1577 70.1533 31.0498 70.3525 30.7427L72.3613 27.7876H72.4028L74.4116 30.7593C74.5859 31.0249 74.7935 31.1577 75.1089 31.1577C75.5986 31.1577 75.9639 30.834 75.9639 30.3691C75.9639 30.1865 75.9058 30.0122 75.7729 29.8213L73.4736 26.584L75.7812 23.4463C75.9307 23.2554 75.9888 23.0811 75.9888 22.8735C75.9888 22.4336 75.6318 22.1099 75.1255 22.1099C74.8184 22.1099 74.6191 22.2427 74.4033 22.583L72.4775 25.4302H72.4443L70.4771 22.5581C70.2612 22.2261 70.0786 22.1099 69.7383 22.1099C69.2485 22.1099 68.875 22.4419 68.875 22.8818C68.875 23.0894 68.9331 23.2637 69.0576 23.438L71.3652 26.6421L69.0244 29.8379C68.8833 30.0371 68.8169 30.2114 68.8169 30.4023C68.8169 30.8423 69.1655 31.1577 69.647 31.1577ZM82.0649 31H85.3604C88.9297 31 91.0298 28.7754 91.0298 24.9902C91.0298 21.2134 88.9214 19.022 85.3604 19.022H82.0649C81.4839 19.022 81.1353 19.3872 81.1353 19.9849V30.0371C81.1353 30.6348 81.4839 31 82.0649 31ZM82.9946 29.3896V20.624H85.186C87.7178 20.624 89.1289 22.1846 89.1289 25.0068C89.1289 27.8374 87.7261 29.3896 85.186 29.3896H82.9946ZM96.3755 31.166C98.0024 31.166 99.2725 30.5103 99.8452 29.3647C99.9199 29.1904 99.9697 29.0244 99.9697 28.8833C99.9697 28.4351 99.6543 28.1528 99.2227 28.1528C98.9653 28.1528 98.7827 28.2441 98.5918 28.4683C97.9277 29.373 97.3135 29.7134 96.334 29.7134C94.9062 29.7134 94.0098 28.7173 94.0098 27.1235V27.082H99.2891C99.8452 27.082 100.177 26.75 100.177 26.1689C100.177 23.7866 98.5752 22.1099 96.251 22.1099C93.7773 22.1099 92.2002 23.9028 92.2002 26.6753C92.2002 29.4976 93.7441 31.166 96.3755 31.166ZM94.0181 25.8286C94.1094 24.4673 95.0059 23.5542 96.2427 23.5542C97.4878 23.5542 98.3428 24.459 98.3843 25.8286H94.0181ZM102.493 31.1577C103.016 31.1577 103.381 30.8257 103.381 30.2612V29.5142H103.415C103.954 30.5269 104.95 31.1494 106.22 31.1494C108.445 31.1494 109.873 29.4062 109.873 26.6338C109.873 23.8696 108.437 22.1265 106.237 22.1265C105 22.1265 103.996 22.7407 103.473 23.7534H103.431V19.8105C103.431 19.2212 103.058 18.8643 102.535 18.8643C102.012 18.8643 101.638 19.2212 101.638 19.8105V30.2612C101.638 30.8257 101.979 31.1577 102.493 31.1577ZM105.739 29.6304C104.386 29.6304 103.423 28.4517 103.423 26.6338C103.423 24.8325 104.386 23.6372 105.739 23.6372C107.15 23.6372 108.03 24.7993 108.03 26.6338C108.03 28.4849 107.158 29.6304 105.739 29.6304ZM112.222 20.9478C112.803 20.9478 113.268 20.4829 113.268 19.9185C113.268 19.3457 112.803 18.8975 112.222 18.8975C111.649 18.8975 111.184 19.3457 111.184 19.9185C111.184 20.4829 111.649 20.9478 112.222 20.9478ZM112.222 31.1577C112.761 31.1577 113.118 30.7842 113.118 30.2114V23.0645C113.118 22.4834 112.761 22.1099 112.222 22.1099C111.682 22.1099 111.325 22.4834 111.325 23.0645V30.2114C111.325 30.7842 111.682 31.1577 112.222 31.1577ZM117.509 31.1494C118.646 31.1494 119.759 30.5352 120.265 29.564H120.307V30.3027C120.323 30.834 120.664 31.1577 121.162 31.1577C121.668 31.1577 122.025 30.8174 122.025 30.2529V24.9819C122.025 23.2305 120.672 22.1099 118.555 22.1099C116.986 22.1099 115.667 22.7407 115.21 23.7285C115.102 23.9277 115.052 24.127 115.052 24.3096C115.052 24.7578 115.376 25.0566 115.824 25.0566C116.14 25.0566 116.372 24.9404 116.555 24.6748C117.053 23.8779 117.625 23.5708 118.489 23.5708C119.584 23.5708 120.24 24.1519 120.24 25.123V25.7954L117.841 25.9365C115.774 26.0527 114.596 26.9907 114.596 28.5181C114.596 30.0869 115.799 31.1494 117.509 31.1494ZM117.999 29.73C117.044 29.73 116.405 29.2319 116.405 28.4683C116.405 27.7212 117.011 27.248 118.082 27.1733L120.24 27.0405V27.7295C120.24 28.8667 119.252 29.73 117.999 29.73ZM124.665 31.1577C125.188 31.1577 125.561 30.8008 125.561 30.2114V25.9116C125.561 24.5586 126.375 23.6621 127.636 23.6621C128.881 23.6621 129.496 24.3843 129.496 25.6958V30.2114C129.496 30.8008 129.869 31.1577 130.392 31.1577C130.923 31.1577 131.297 30.8008 131.297 30.2114V25.3472C131.297 23.3467 130.193 22.1182 128.267 22.1182C126.922 22.1182 126.009 22.7158 125.536 23.7119H125.495V23.0229C125.495 22.4668 125.138 22.1099 124.623 22.1099C124.1 22.1099 123.768 22.4668 123.768 23.0146V30.2114C123.768 30.8008 124.133 31.1577 124.665 31.1577Z" fill="white"/>
<path d="M37.7861 12H39.1362C40.6025 12 41.4639 11.0874 41.4639 9.53223C41.4639 7.98047 40.5991 7.06787 39.1362 7.06787H37.7861C37.5981 7.06787 37.4785 7.19092 37.4785 7.38574V11.6821C37.4785 11.877 37.5981 12 37.7861 12ZM38.0938 11.4463V7.62158H39.0952C40.2163 7.62158 40.835 8.30518 40.835 9.53906C40.835 10.7627 40.2129 11.4463 39.0952 11.4463H38.0938ZM43.6104 12.0615C44.5913 12.0615 45.2544 11.354 45.2544 10.2227C45.2544 9.08789 44.5913 8.38379 43.6104 8.38379C42.626 8.38379 41.9629 9.08789 41.9629 10.2227C41.9629 11.354 42.626 12.0615 43.6104 12.0615ZM43.6104 11.5386C42.9814 11.5386 42.5679 11.0601 42.5679 10.2227C42.5679 9.38525 42.9814 8.90674 43.6104 8.90674C44.2393 8.90674 44.6494 9.38525 44.6494 10.2227C44.6494 11.0601 44.2393 11.5386 43.6104 11.5386ZM46.8574 12.0615C47.0454 12.0615 47.1753 11.9624 47.23 11.7744L47.9648 9.24854H47.9785L48.7168 11.7744C48.7749 11.9761 48.8877 12.0615 49.0859 12.0615C49.2705 12.0615 49.3936 11.9658 49.4482 11.7744L50.3164 8.79395C50.3335 8.73584 50.3403 8.68457 50.3403 8.64014C50.3403 8.48291 50.2275 8.38379 50.0498 8.38379C49.9028 8.38379 49.8242 8.45215 49.7798 8.62646L49.0791 11.3369H49.0654L48.3135 8.64697C48.2656 8.47266 48.1528 8.38379 47.9751 8.38379C47.7939 8.38379 47.6743 8.47607 47.6265 8.65039L46.8813 11.3369H46.8677L46.167 8.62646C46.1226 8.45215 46.0439 8.38379 45.897 8.38379C45.7192 8.38379 45.6064 8.48291 45.6064 8.64014C45.6064 8.68457 45.6133 8.73584 45.6304 8.79395L46.4985 11.7744C46.5566 11.9727 46.6694 12.0615 46.8574 12.0615ZM51.1641 12.0615C51.3384 12.0615 51.4614 11.9316 51.4614 11.7437V9.9082C51.4614 9.30664 51.8271 8.91016 52.3877 8.91016C52.9346 8.91016 53.2046 9.22461 53.2046 9.79883V11.7437C53.2046 11.9316 53.3276 12.0615 53.502 12.0615C53.6763 12.0615 53.7993 11.9316 53.7993 11.7437V9.69287C53.7993 8.88623 53.3481 8.38379 52.5688 8.38379C52.0186 8.38379 51.6392 8.62988 51.4409 9.0127H51.4272V8.68457C51.4272 8.50684 51.311 8.38379 51.147 8.38379C50.9829 8.38379 50.8667 8.50684 50.8667 8.68457V11.7437C50.8667 11.9316 50.9897 12.0615 51.1641 12.0615ZM54.8862 12.0615C55.0605 12.0615 55.1836 11.9316 55.1836 11.7437V7.32422C55.1836 7.13623 55.0605 7.00635 54.8862 7.00635C54.7119 7.00635 54.5889 7.13623 54.5889 7.32422V11.7437C54.5889 11.9316 54.7119 12.0615 54.8862 12.0615ZM57.46 12.0615C58.4409 12.0615 59.104 11.354 59.104 10.2227C59.104 9.08789 58.4409 8.38379 57.46 8.38379C56.4756 8.38379 55.8125 9.08789 55.8125 10.2227C55.8125 11.354 56.4756 12.0615 57.46 12.0615ZM57.46 11.5386C56.8311 11.5386 56.4175 11.0601 56.4175 10.2227C56.4175 9.38525 56.8311 8.90674 57.46 8.90674C58.0889 8.90674 58.499 9.38525 58.499 10.2227C58.499 11.0601 58.0889 11.5386 57.46 11.5386ZM60.7412 12.0615C61.2197 12.0615 61.6743 11.7949 61.8862 11.3882H61.8999V11.7607C61.8999 11.9385 62.0161 12.0615 62.1836 12.0615C62.3477 12.0615 62.4639 11.9385 62.4639 11.7607V9.54248C62.4639 8.83496 61.9375 8.38379 61.1035 8.38379C60.5259 8.38379 60.0063 8.64014 59.8047 9.02979C59.7568 9.11523 59.7329 9.20068 59.7329 9.27588C59.7329 9.43652 59.8423 9.54248 59.9961 9.54248C60.1089 9.54248 60.1875 9.49805 60.2422 9.39893C60.4404 9.04688 60.7036 8.90674 61.0898 8.90674C61.582 8.90674 61.8691 9.1665 61.8691 9.60059V9.89795L60.8472 9.95605C60.0269 10.0039 59.5586 10.3867 59.5586 10.9951C59.5586 11.6343 60.0337 12.0615 60.7412 12.0615ZM60.8745 11.5557C60.4473 11.5557 60.1636 11.3335 60.1636 10.9951C60.1636 10.6602 60.437 10.4482 60.9155 10.4175L61.8691 10.3594V10.6499C61.8691 11.1626 61.4351 11.5557 60.8745 11.5557ZM64.5659 12.0615C65.123 12.0615 65.4922 11.7881 65.687 11.3643H65.6973V11.771C65.6973 11.9453 65.834 12.0615 66.0015 12.0615C66.1724 12.0615 66.292 11.9419 66.292 11.771V7.32422C66.292 7.13623 66.1689 7.00635 65.9946 7.00635C65.8203 7.00635 65.6973 7.13623 65.6973 7.32422V9.02295H65.6836C65.4717 8.6333 65.0615 8.38379 64.5522 8.38379C63.6567 8.38379 63.0449 9.1084 63.0449 10.2227C63.0449 11.3369 63.6602 12.0615 64.5659 12.0615ZM64.6787 11.5386C64.0498 11.5386 63.6533 11.0293 63.6533 10.2227C63.6533 9.41943 64.0498 8.90674 64.6787 8.90674C65.2905 8.90674 65.7007 9.42969 65.7007 10.2227C65.7007 11.019 65.2905 11.5386 64.6787 11.5386ZM69.0195 12.0615C69.2007 12.0615 69.3169 11.9385 69.3169 11.7471V8.93408H69.8398C69.9937 8.93408 70.0928 8.84521 70.0928 8.69141C70.0928 8.54443 69.9937 8.44531 69.8398 8.44531H69.3135V8.06934C69.3135 7.70361 69.4502 7.54639 69.7646 7.54639C69.8398 7.54639 69.8979 7.53955 69.9492 7.52588C70.0586 7.49512 70.1099 7.42676 70.1099 7.31738C70.1099 7.14307 69.9424 7.04053 69.6279 7.04053C69.0469 7.04053 68.7222 7.36865 68.7222 8.04883V8.44531H68.4282C68.2744 8.44531 68.1753 8.54443 68.1753 8.69141C68.1753 8.84521 68.2744 8.93408 68.4282 8.93408H68.7222V11.7471C68.7222 11.9385 68.8384 12.0615 69.0195 12.0615ZM71.959 12.0615C72.9399 12.0615 73.603 11.354 73.603 10.2227C73.603 9.08789 72.9399 8.38379 71.959 8.38379C70.9746 8.38379 70.3115 9.08789 70.3115 10.2227C70.3115 11.354 70.9746 12.0615 71.959 12.0615ZM71.959 11.5386C71.3301 11.5386 70.9165 11.0601 70.9165 10.2227C70.9165 9.38525 71.3301 8.90674 71.959 8.90674C72.5879 8.90674 72.998 9.38525 72.998 10.2227C72.998 11.0601 72.5879 11.5386 71.959 11.5386ZM74.502 12.0615C74.6763 12.0615 74.7993 11.9316 74.7993 11.7437V9.79199C74.7993 9.3374 75.0283 8.95117 75.5649 8.95117C75.6948 8.95117 75.7871 8.92725 75.8486 8.87598C75.9102 8.82812 75.9409 8.75977 75.9409 8.66748C75.9409 8.58545 75.917 8.51709 75.8657 8.46924C75.8076 8.41455 75.7153 8.38379 75.5854 8.38379C75.23 8.38379 74.8813 8.65723 74.7788 9.02637H74.7651V8.68457C74.7651 8.50684 74.6489 8.38379 74.4849 8.38379C74.3208 8.38379 74.2046 8.50684 74.2046 8.68457V11.7437C74.2046 11.9316 74.3276 12.0615 74.502 12.0615Z" fill="white"/>
<g clip-path="url(#clip0_6_41)">
<path d="M21.4225 20.7938C20.9586 20.8003 21.5103 21.0329 22.1161 21.1261C22.2834 20.9955 22.4352 20.8633 22.5705 20.7347C22.1933 20.8271 21.8093 20.8292 21.4225 20.7938Z" fill="#A80030"/>
<path d="M23.9128 20.1731C24.1891 19.7918 24.3905 19.3743 24.4615 18.9426C24.3995 19.2503 24.2325 19.516 24.0752 19.7964C23.208 20.3425 23.9937 19.4721 24.0747 19.1414C23.1421 20.3151 23.9467 19.8452 23.9128 20.1731Z" fill="#A80030"/>
<path d="M24.832 17.7812C24.888 16.9457 24.6675 17.2098 24.5934 17.5287C24.6799 17.5736 24.7484 18.1176 24.832 17.7812Z" fill="#A80030"/>
<path d="M19.6632 6.36122C19.9108 6.40563 20.1982 6.43971 20.1579 6.49884C20.4288 6.43945 20.4902 6.38472 19.6632 6.36122Z" fill="#A80030"/>
<path d="M20.1579 6.49884L19.9828 6.53499L20.1458 6.52053L20.1579 6.49884Z" fill="#A80030"/>
<path d="M27.879 18.098C27.9066 18.8483 27.6595 19.2124 27.4367 19.8568L27.0357 20.0572C26.7075 20.6944 27.0675 20.4618 26.8325 20.9686C26.3203 21.4241 25.2779 22.3939 24.9443 22.4824C24.7009 22.477 25.1093 22.195 25.1628 22.0845C24.477 22.5555 24.6125 22.7915 23.5638 23.0776L23.533 23.0094C20.9464 24.2263 17.3534 21.8147 17.4006 18.5243C17.373 18.7332 17.3221 18.681 17.2648 18.7654C17.1313 17.0725 18.0466 15.372 19.5904 14.6777C21.1003 13.9302 22.8705 14.2369 23.9521 15.2449C23.358 14.4667 22.1754 13.6418 20.774 13.719C19.4011 13.7407 18.1169 14.6131 17.6883 15.5602C16.9849 16.003 16.9034 17.2671 16.5969 17.4985C16.1845 20.5289 17.3725 21.8382 19.382 23.3784C19.6983 23.5916 19.4711 23.6239 19.514 23.7863C18.8463 23.4736 18.2349 23.0017 17.7322 22.4238C17.9989 22.8142 18.2868 23.1937 18.6588 23.492C18.0293 23.2787 17.1884 21.9665 16.9429 21.9131C18.0281 23.856 21.3456 25.3205 23.0827 24.5939C22.279 24.6236 21.2578 24.6105 20.3546 24.2766C19.9754 24.0814 19.4595 23.6771 19.5517 23.6014C21.9224 24.487 24.3714 24.2722 26.4228 22.6278C26.9446 22.2214 27.5147 21.5299 27.6794 21.5204C27.4313 21.8935 27.7217 21.6998 27.5312 22.0293C28.0512 21.1907 27.3053 21.688 28.0687 20.5811L28.3507 20.9694C28.2459 20.2733 29.2151 19.428 29.1168 18.327C29.3391 17.9903 29.3649 18.6893 29.1289 19.4639C29.4563 18.6046 29.2151 18.4664 29.2993 17.7574C29.3902 17.9958 29.5095 18.249 29.5707 18.5005C29.3574 17.6702 29.7896 17.1021 29.8965 16.6196C29.7912 16.5728 29.5673 16.9867 29.5162 16.0058C29.5237 15.5798 29.6347 15.7825 29.6776 15.6777C29.5939 15.6297 29.3744 15.303 29.241 14.6767C29.3378 14.5295 29.4997 15.0583 29.6313 15.08C29.5467 14.5819 29.4008 14.2021 29.3948 13.82C29.0101 13.0159 29.2588 13.9271 28.9466 13.4748C28.5371 12.1975 29.2864 13.1783 29.337 12.5979C29.9577 13.4972 30.3117 14.891 30.4741 15.4683C30.3502 14.7644 30.1498 14.0825 29.9053 13.4229C30.0938 13.5021 29.6017 11.9746 30.1503 12.9863C29.5642 10.8298 27.642 8.81485 25.8736 7.86933C26.0899 8.06737 26.3631 8.31601 26.265 8.355C25.3856 7.83138 25.5402 7.79059 25.4142 7.56931C24.6978 7.27781 24.6508 7.59281 24.1762 7.56983C22.8258 6.85359 22.5656 6.92976 21.3229 6.48102L21.3794 6.74515C20.4848 6.44719 20.3371 6.85824 19.3701 6.74618C19.3113 6.70023 19.68 6.57991 19.9834 6.53576C19.1184 6.64988 19.1589 6.36535 18.3126 6.56726C18.5212 6.42086 18.7417 6.32404 18.9643 6.19958C18.2589 6.24245 17.2803 6.61012 17.5824 6.27575C16.4319 6.78905 14.3885 7.50967 13.2419 8.58479L13.2057 8.3439C12.6803 8.97467 10.9145 10.2277 10.7738 11.0446L10.6333 11.0774C10.3599 11.5404 10.183 12.065 9.96616 12.5414C9.60856 13.1507 9.44202 12.7758 9.49289 12.8714C8.78956 14.2974 8.44022 15.4957 8.13839 16.4783C8.35347 16.7998 8.14356 18.4135 8.22489 19.705C7.87168 26.0835 12.7015 32.2765 17.9808 33.7064C18.7546 33.9832 19.9054 33.9726 20.8842 34.001C19.7293 33.6708 19.5801 33.826 18.4551 33.4338C17.6436 33.0516 17.4657 32.6153 16.891 32.1165L17.1184 32.5185C15.9911 32.1196 16.4629 32.0248 15.5458 31.7343L15.7887 31.417C15.4234 31.3894 14.821 30.8012 14.6563 30.4756L14.2566 30.4914C13.7763 29.8988 13.5205 29.4718 13.5391 29.141L13.41 29.3711C13.2636 29.1198 11.6431 27.1488 12.4838 27.6076C12.3276 27.4648 12.12 27.3752 11.8949 26.9662L12.0661 26.7705C11.6615 26.25 11.3214 25.5828 11.3472 25.3605C11.5631 25.652 11.7128 25.7065 11.8611 25.7563C10.8394 23.2214 10.7821 25.6167 10.0082 23.1759L10.1719 23.1628C10.0465 22.9738 9.97029 22.7685 9.86933 22.5671L9.9406 21.8571C9.205 21.0066 9.73481 18.2408 9.84093 16.7239C9.91452 16.1071 10.4549 15.4505 10.866 14.4208L10.6155 14.3777C11.0942 13.5427 13.3488 11.0242 14.3929 11.1538C14.8987 10.5184 14.2925 11.1515 14.1936 10.9914C15.3046 9.84169 15.6539 10.1792 16.4037 9.97234C17.2124 9.49235 15.7097 10.1595 16.0931 9.78928C17.491 9.43219 17.0838 8.97751 18.9075 8.79626C19.0998 8.90573 18.461 8.96537 18.3007 9.10738C19.4654 8.53754 21.9864 8.66716 23.6239 9.42367C25.524 10.3116 27.6587 12.9364 27.7429 15.4061L27.8387 15.4319C27.7902 16.4135 27.989 17.5488 27.6445 18.5917L27.879 18.098Z" fill="#A80030"/>
<path d="M16.3583 21.4308L16.2932 21.7561C16.5982 22.1703 16.8401 22.619 17.2295 22.9428C16.9493 22.3959 16.7412 22.17 16.3583 21.4308Z" fill="#A80030"/>
<path d="M17.0792 21.4024C16.9178 21.224 16.8223 21.0092 16.7154 20.7951C16.8176 21.1713 17.027 21.4946 17.222 21.8233L17.0792 21.4024Z" fill="#A80030"/>
<path d="M29.8351 18.6299L29.7669 18.8008C29.6419 19.6885 29.3721 20.5669 28.9585 21.3812C29.4155 20.5219 29.7111 19.5821 29.8351 18.6299Z" fill="#A80030"/>
<path d="M19.7549 6.13865C20.0686 6.02375 20.5261 6.07565 20.8589 6C20.4251 6.03641 19.9934 6.05809 19.5672 6.11309L19.7549 6.13865Z" fill="#A80030"/>
<path d="M8.74154 11.995C8.81383 12.6643 8.23806 12.924 8.86909 12.4828C9.20732 11.7208 8.73689 12.2723 8.74154 11.995Z" fill="#A80030"/>
<path d="M8 15.0923C8.14536 14.6462 8.1717 14.3782 8.22721 14.12C7.82546 14.6335 8.04234 14.743 8 15.0923Z" fill="#A80030"/>
</g>
<defs>
<clipPath id="clip0_6_41">
<rect width="22.4736" height="28" fill="white" transform="translate(8 6)"/>
</clipPath>
</defs>
</svg>
