<svg width="140" height="40" viewBox="0 0 140 40" fill="none" xmlns="http://www.w3.org/2000/svg">
<rect x="0.5" y="0.5" width="139" height="39" rx="5.5" fill="black" stroke="#DDDDDD"/>
<path d="M38.8896 31.167C39.4609 31.167 39.8389 30.7715 39.8389 30.165V25.2871C39.8389 24.1006 40.6387 23.2217 41.7637 23.2217C42.8359 23.2217 43.5127 23.8984 43.5127 24.9619V30.165C43.5127 30.7715 43.873 31.167 44.4443 31.167C45.0156 31.167 45.376 30.7715 45.376 30.165V25.2256C45.376 24.0566 46.1582 23.2217 47.2832 23.2217C48.4082 23.2217 49.0498 23.9072 49.0498 25.1025V30.165C49.0498 30.7715 49.4277 31.167 49.999 31.167C50.5703 31.167 50.957 30.7715 50.957 30.165V24.6455C50.957 22.8086 49.7617 21.5957 47.9336 21.5957C46.6152 21.5957 45.5254 22.2812 45.0508 23.4062H45.0068C44.6377 22.2549 43.7061 21.5957 42.4229 21.5957C41.1748 21.5957 40.208 22.2812 39.7949 23.3096H39.751V22.5537C39.751 21.9473 39.373 21.5869 38.8457 21.5869C38.3096 21.5869 37.9404 21.9561 37.9404 22.5537V30.165C37.9404 30.7715 38.3184 31.167 38.8896 31.167ZM55.501 31.1582C56.7051 31.1582 57.8828 30.5078 58.4189 29.4795H58.4629V30.2617C58.4805 30.8242 58.8408 31.167 59.3682 31.167C59.9043 31.167 60.2822 30.8066 60.2822 30.209V24.6279C60.2822 22.7734 58.8496 21.5869 56.6084 21.5869C54.9473 21.5869 53.5498 22.2549 53.0664 23.3008C52.9521 23.5117 52.8994 23.7227 52.8994 23.916C52.8994 24.3906 53.2422 24.707 53.7168 24.707C54.0508 24.707 54.2969 24.584 54.4902 24.3027C55.0176 23.459 55.624 23.1338 56.5381 23.1338C57.6982 23.1338 58.3926 23.749 58.3926 24.7773V25.4893L55.8525 25.6387C53.6641 25.7617 52.416 26.7549 52.416 28.3721C52.416 30.0332 53.6904 31.1582 55.501 31.1582ZM56.0195 29.6553C55.0088 29.6553 54.332 29.1279 54.332 28.3193C54.332 27.5283 54.9736 27.0273 56.1074 26.9482L58.3926 26.8076V27.5371C58.3926 28.7412 57.3467 29.6553 56.0195 29.6553ZM66.083 31.1758C67.7969 31.1758 69.2998 30.2705 69.7832 28.9961C69.8535 28.8115 69.8887 28.6533 69.8887 28.5039C69.8887 28.0293 69.5459 27.7129 69.0801 27.7129C68.667 27.7129 68.4648 27.8711 68.2012 28.3281C67.7529 29.1279 67.1289 29.585 66.1006 29.585C64.6328 29.585 63.6484 28.3896 63.6484 26.377C63.6484 24.4082 64.6152 23.1689 66.1006 23.1689C67.0762 23.1689 67.7266 23.5908 68.2012 24.4697C68.4297 24.8916 68.6582 25.0498 69.0625 25.0498C69.5283 25.0498 69.8711 24.751 69.8711 24.2676C69.8711 24.1357 69.8359 23.9775 69.7832 23.8281C69.3789 22.5361 67.8496 21.5869 66.0654 21.5869C63.4287 21.5869 61.7148 23.4678 61.7148 26.3945C61.7148 29.3389 63.4375 31.1758 66.083 31.1758ZM77.1396 31.2109C80.7871 31.2109 83.0811 28.6973 83.0811 24.6631C83.0811 20.6289 80.7871 18.1064 77.1396 18.1064C73.4834 18.1064 71.1982 20.6289 71.1982 24.6631C71.1982 28.6973 73.4834 31.2109 77.1396 31.2109ZM77.1396 29.4795C74.7314 29.4795 73.2109 27.6162 73.2109 24.6631C73.2109 21.7012 74.7314 19.8379 77.1396 19.8379C79.5479 19.8379 81.0596 21.7012 81.0596 24.6631C81.0596 27.6162 79.5479 29.4795 77.1396 29.4795ZM89.2861 31.2109C92.248 31.2109 94.1289 29.708 94.1289 27.3174C94.1289 25.4717 93.0391 24.4082 90.376 23.8457L88.9961 23.5557C87.3525 23.2041 86.6934 22.5889 86.6934 21.666C86.6934 20.5059 87.792 19.7852 89.2773 19.7852C90.543 19.7852 91.5098 20.2861 91.9404 21.4551C92.1426 21.9121 92.4326 22.1318 92.9072 22.1318C93.417 22.1318 93.7773 21.7979 93.7773 21.2881C93.7773 21.1035 93.751 20.9541 93.707 20.8311C93.2148 19.1348 91.4922 18.1064 89.3037 18.1064C86.6055 18.1064 84.6982 19.6006 84.6982 21.7715C84.6982 23.5996 85.8496 24.7773 88.3809 25.3135L89.7695 25.6035C91.4658 25.9727 92.1338 26.5879 92.1338 27.5723C92.1338 28.7061 90.9824 29.5322 89.374 29.5322C87.9062 29.5322 86.7549 28.9785 86.3594 27.792C86.166 27.3174 85.876 27.1152 85.4277 27.1152C84.8916 27.1152 84.54 27.4844 84.54 28.0557C84.54 28.2666 84.584 28.4775 84.6455 28.6709C85.1377 30.1475 86.8252 31.2109 89.2861 31.2109ZM100.536 31.1406C101.143 31.1406 101.521 30.7539 101.521 30.1211V19.1963C101.521 18.5635 101.143 18.1768 100.536 18.1768C99.9209 18.1768 99.5518 18.5635 99.5518 19.1963V30.1211C99.5518 30.7539 99.9209 31.1406 100.536 31.1406ZM104.579 31.167C105.133 31.167 105.528 30.7891 105.528 30.165V25.6123C105.528 24.1797 106.39 23.2305 107.726 23.2305C109.044 23.2305 109.694 23.9951 109.694 25.3838V30.165C109.694 30.7891 110.09 31.167 110.644 31.167C111.206 31.167 111.602 30.7891 111.602 30.165V25.0146C111.602 22.8965 110.433 21.5957 108.394 21.5957C106.97 21.5957 106.003 22.2285 105.502 23.2832H105.458V22.5537C105.458 21.9648 105.08 21.5869 104.535 21.5869C103.981 21.5869 103.63 21.9648 103.63 22.5449V30.165C103.63 30.7891 104.017 31.167 104.579 31.167ZM113.992 28.7852C113.992 30.3145 114.783 31.0791 116.339 31.0791H116.436C117.367 31.0791 117.807 30.7891 117.807 30.2178C117.807 29.7695 117.534 29.5498 116.989 29.4971L116.84 29.4883C116.154 29.4355 115.899 29.1016 115.899 28.3633V23.2568H116.98C117.473 23.2568 117.771 22.9756 117.771 22.5098C117.771 22.0439 117.473 21.7539 116.98 21.7539H115.899V20.3828C115.899 19.7764 115.521 19.3721 114.95 19.3721C114.37 19.3721 113.992 19.7764 113.992 20.3828V21.7539H113.324C112.832 21.7539 112.533 22.0352 112.533 22.5098C112.533 22.9756 112.832 23.2568 113.324 23.2568H113.992V28.7852ZM123.001 31.1758C124.724 31.1758 126.068 30.4814 126.675 29.2686C126.754 29.084 126.807 28.9082 126.807 28.7588C126.807 28.2842 126.473 27.9854 126.016 27.9854C125.743 27.9854 125.55 28.082 125.348 28.3193C124.645 29.2773 123.994 29.6377 122.957 29.6377C121.445 29.6377 120.496 28.583 120.496 26.8955V26.8516H126.086C126.675 26.8516 127.026 26.5 127.026 25.8848C127.026 23.3623 125.33 21.5869 122.869 21.5869C120.25 21.5869 118.58 23.4854 118.58 26.4209C118.58 29.4092 120.215 31.1758 123.001 31.1758ZM120.505 25.5244C120.602 24.083 121.551 23.1162 122.86 23.1162C124.179 23.1162 125.084 24.0742 125.128 25.5244H120.505ZM129.522 31.167C130.076 31.167 130.472 30.7891 130.472 30.165V19.1523C130.472 18.5283 130.076 18.1504 129.522 18.1504C128.969 18.1504 128.573 18.5283 128.573 19.1523V30.165C128.573 30.7891 128.969 31.167 129.522 31.167Z" fill="white"/>
<path d="M37.7861 12H39.1362C40.6025 12 41.4639 11.0874 41.4639 9.53223C41.4639 7.98047 40.5991 7.06787 39.1362 7.06787H37.7861C37.5981 7.06787 37.4785 7.19092 37.4785 7.38574V11.6821C37.4785 11.877 37.5981 12 37.7861 12ZM38.0938 11.4463V7.62158H39.0952C40.2163 7.62158 40.835 8.30518 40.835 9.53906C40.835 10.7627 40.2129 11.4463 39.0952 11.4463H38.0938ZM43.6104 12.0615C44.5913 12.0615 45.2544 11.354 45.2544 10.2227C45.2544 9.08789 44.5913 8.38379 43.6104 8.38379C42.626 8.38379 41.9629 9.08789 41.9629 10.2227C41.9629 11.354 42.626 12.0615 43.6104 12.0615ZM43.6104 11.5386C42.9814 11.5386 42.5679 11.0601 42.5679 10.2227C42.5679 9.38525 42.9814 8.90674 43.6104 8.90674C44.2393 8.90674 44.6494 9.38525 44.6494 10.2227C44.6494 11.0601 44.2393 11.5386 43.6104 11.5386ZM46.8574 12.0615C47.0454 12.0615 47.1753 11.9624 47.23 11.7744L47.9648 9.24854H47.9785L48.7168 11.7744C48.7749 11.9761 48.8877 12.0615 49.0859 12.0615C49.2705 12.0615 49.3936 11.9658 49.4482 11.7744L50.3164 8.79395C50.3335 8.73584 50.3403 8.68457 50.3403 8.64014C50.3403 8.48291 50.2275 8.38379 50.0498 8.38379C49.9028 8.38379 49.8242 8.45215 49.7798 8.62646L49.0791 11.3369H49.0654L48.3135 8.64697C48.2656 8.47266 48.1528 8.38379 47.9751 8.38379C47.7939 8.38379 47.6743 8.47607 47.6265 8.65039L46.8813 11.3369H46.8677L46.167 8.62646C46.1226 8.45215 46.0439 8.38379 45.897 8.38379C45.7192 8.38379 45.6064 8.48291 45.6064 8.64014C45.6064 8.68457 45.6133 8.73584 45.6304 8.79395L46.4985 11.7744C46.5566 11.9727 46.6694 12.0615 46.8574 12.0615ZM51.1641 12.0615C51.3384 12.0615 51.4614 11.9316 51.4614 11.7437V9.9082C51.4614 9.30664 51.8271 8.91016 52.3877 8.91016C52.9346 8.91016 53.2046 9.22461 53.2046 9.79883V11.7437C53.2046 11.9316 53.3276 12.0615 53.502 12.0615C53.6763 12.0615 53.7993 11.9316 53.7993 11.7437V9.69287C53.7993 8.88623 53.3481 8.38379 52.5688 8.38379C52.0186 8.38379 51.6392 8.62988 51.4409 9.0127H51.4272V8.68457C51.4272 8.50684 51.311 8.38379 51.147 8.38379C50.9829 8.38379 50.8667 8.50684 50.8667 8.68457V11.7437C50.8667 11.9316 50.9897 12.0615 51.1641 12.0615ZM54.8862 12.0615C55.0605 12.0615 55.1836 11.9316 55.1836 11.7437V7.32422C55.1836 7.13623 55.0605 7.00635 54.8862 7.00635C54.7119 7.00635 54.5889 7.13623 54.5889 7.32422V11.7437C54.5889 11.9316 54.7119 12.0615 54.8862 12.0615ZM57.46 12.0615C58.4409 12.0615 59.104 11.354 59.104 10.2227C59.104 9.08789 58.4409 8.38379 57.46 8.38379C56.4756 8.38379 55.8125 9.08789 55.8125 10.2227C55.8125 11.354 56.4756 12.0615 57.46 12.0615ZM57.46 11.5386C56.8311 11.5386 56.4175 11.0601 56.4175 10.2227C56.4175 9.38525 56.8311 8.90674 57.46 8.90674C58.0889 8.90674 58.499 9.38525 58.499 10.2227C58.499 11.0601 58.0889 11.5386 57.46 11.5386ZM60.7412 12.0615C61.2197 12.0615 61.6743 11.7949 61.8862 11.3882H61.8999V11.7607C61.8999 11.9385 62.0161 12.0615 62.1836 12.0615C62.3477 12.0615 62.4639 11.9385 62.4639 11.7607V9.54248C62.4639 8.83496 61.9375 8.38379 61.1035 8.38379C60.5259 8.38379 60.0063 8.64014 59.8047 9.02979C59.7568 9.11523 59.7329 9.20068 59.7329 9.27588C59.7329 9.43652 59.8423 9.54248 59.9961 9.54248C60.1089 9.54248 60.1875 9.49805 60.2422 9.39893C60.4404 9.04688 60.7036 8.90674 61.0898 8.90674C61.582 8.90674 61.8691 9.1665 61.8691 9.60059V9.89795L60.8472 9.95605C60.0269 10.0039 59.5586 10.3867 59.5586 10.9951C59.5586 11.6343 60.0337 12.0615 60.7412 12.0615ZM60.8745 11.5557C60.4473 11.5557 60.1636 11.3335 60.1636 10.9951C60.1636 10.6602 60.437 10.4482 60.9155 10.4175L61.8691 10.3594V10.6499C61.8691 11.1626 61.4351 11.5557 60.8745 11.5557ZM64.5659 12.0615C65.123 12.0615 65.4922 11.7881 65.687 11.3643H65.6973V11.771C65.6973 11.9453 65.834 12.0615 66.0015 12.0615C66.1724 12.0615 66.292 11.9419 66.292 11.771V7.32422C66.292 7.13623 66.1689 7.00635 65.9946 7.00635C65.8203 7.00635 65.6973 7.13623 65.6973 7.32422V9.02295H65.6836C65.4717 8.6333 65.0615 8.38379 64.5522 8.38379C63.6567 8.38379 63.0449 9.1084 63.0449 10.2227C63.0449 11.3369 63.6602 12.0615 64.5659 12.0615ZM64.6787 11.5386C64.0498 11.5386 63.6533 11.0293 63.6533 10.2227C63.6533 9.41943 64.0498 8.90674 64.6787 8.90674C65.2905 8.90674 65.7007 9.42969 65.7007 10.2227C65.7007 11.019 65.2905 11.5386 64.6787 11.5386ZM69.0195 12.0615C69.2007 12.0615 69.3169 11.9385 69.3169 11.7471V8.93408H69.8398C69.9937 8.93408 70.0928 8.84521 70.0928 8.69141C70.0928 8.54443 69.9937 8.44531 69.8398 8.44531H69.3135V8.06934C69.3135 7.70361 69.4502 7.54639 69.7646 7.54639C69.8398 7.54639 69.8979 7.53955 69.9492 7.52588C70.0586 7.49512 70.1099 7.42676 70.1099 7.31738C70.1099 7.14307 69.9424 7.04053 69.6279 7.04053C69.0469 7.04053 68.7222 7.36865 68.7222 8.04883V8.44531H68.4282C68.2744 8.44531 68.1753 8.54443 68.1753 8.69141C68.1753 8.84521 68.2744 8.93408 68.4282 8.93408H68.7222V11.7471C68.7222 11.9385 68.8384 12.0615 69.0195 12.0615ZM71.959 12.0615C72.9399 12.0615 73.603 11.354 73.603 10.2227C73.603 9.08789 72.9399 8.38379 71.959 8.38379C70.9746 8.38379 70.3115 9.08789 70.3115 10.2227C70.3115 11.354 70.9746 12.0615 71.959 12.0615ZM71.959 11.5386C71.3301 11.5386 70.9165 11.0601 70.9165 10.2227C70.9165 9.38525 71.3301 8.90674 71.959 8.90674C72.5879 8.90674 72.998 9.38525 72.998 10.2227C72.998 11.0601 72.5879 11.5386 71.959 11.5386ZM74.502 12.0615C74.6763 12.0615 74.7993 11.9316 74.7993 11.7437V9.79199C74.7993 9.3374 75.0283 8.95117 75.5649 8.95117C75.6948 8.95117 75.7871 8.92725 75.8486 8.87598C75.9102 8.82812 75.9409 8.75977 75.9409 8.66748C75.9409 8.58545 75.917 8.51709 75.8657 8.46924C75.8076 8.41455 75.7153 8.38379 75.5854 8.38379C75.23 8.38379 74.8813 8.65723 74.7788 9.02637H74.7651V8.68457C74.7651 8.50684 74.6489 8.38379 74.4849 8.38379C74.3208 8.38379 74.2046 8.50684 74.2046 8.68457V11.7437C74.2046 11.9316 74.3276 12.0615 74.502 12.0615Z" fill="white"/>
<path d="M27.9163 16.1824C27.7771 16.2904 25.3192 17.6754 25.3192 20.7549C25.3192 24.3168 28.4467 25.577 28.5404 25.6082C28.5259 25.685 28.0435 27.3339 26.8914 29.0141C25.8641 30.4926 24.7912 31.9688 23.159 31.9688C21.5269 31.9688 21.1068 31.0207 19.2226 31.0207C17.3864 31.0207 16.7336 32 15.2406 32C13.7477 32 12.706 30.6319 11.5083 28.9517C10.1209 26.9787 9 23.9136 9 21.0045C9 16.3384 12.0339 13.8638 15.0198 13.8638C16.6064 13.8638 17.9289 14.9055 18.925 14.9055C19.8731 14.9055 21.3516 13.8014 23.1566 13.8014C23.8407 13.8014 26.2985 13.8638 27.9163 16.1824ZM22.2997 11.826C23.0462 10.9403 23.5743 9.71137 23.5743 8.48245C23.5743 8.31203 23.5599 8.13921 23.5287 8C22.3141 8.0456 20.8692 8.80888 19.9979 9.81938C19.3138 10.5971 18.6754 11.826 18.6754 13.0717C18.6754 13.2589 18.7066 13.4461 18.721 13.5062C18.7978 13.5206 18.9226 13.5374 19.0474 13.5374C20.1371 13.5374 21.5076 12.8077 22.2997 11.826Z" fill="white"/>
</svg>
