<svg width="140" height="40" viewBox="0 0 140 40" fill="none" xmlns="http://www.w3.org/2000/svg">
<rect x="0.5" y="0.5" width="139" height="39" rx="5.5" fill="black" stroke="#DDDDDD"/>
<path d="M39.0337 31H44.811C45.3257 31 45.6743 30.6846 45.6743 30.1948C45.6743 29.7051 45.3257 29.3896 44.811 29.3896H39.9634V19.8521C39.9634 19.2544 39.6064 18.8892 39.0337 18.8892C38.4526 18.8892 38.104 19.2544 38.104 19.8521V30.0371C38.104 30.6348 38.4526 31 39.0337 31ZM47.874 20.9478C48.4551 20.9478 48.9199 20.4829 48.9199 19.9185C48.9199 19.3457 48.4551 18.8975 47.874 18.8975C47.3013 18.8975 46.8364 19.3457 46.8364 19.9185C46.8364 20.4829 47.3013 20.9478 47.874 20.9478ZM47.874 31.1577C48.4136 31.1577 48.7705 30.7842 48.7705 30.2114V23.0645C48.7705 22.4834 48.4136 22.1099 47.874 22.1099C47.3345 22.1099 46.9775 22.4834 46.9775 23.0645V30.2114C46.9775 30.7842 47.3345 31.1577 47.874 31.1577ZM51.5015 31.1577C52.0244 31.1577 52.3979 30.8008 52.3979 30.2114V25.9116C52.3979 24.5586 53.2114 23.6621 54.4731 23.6621C55.7183 23.6621 56.3325 24.3843 56.3325 25.6958V30.2114C56.3325 30.8008 56.7061 31.1577 57.229 31.1577C57.7603 31.1577 58.1338 30.8008 58.1338 30.2114V25.3472C58.1338 23.3467 57.0298 22.1182 55.104 22.1182C53.7593 22.1182 52.8462 22.7158 52.373 23.7119H52.3315V23.0229C52.3315 22.4668 51.9746 22.1099 51.46 22.1099C50.937 22.1099 50.605 22.4668 50.605 23.0146V30.2114C50.605 30.8008 50.9702 31.1577 51.5015 31.1577ZM62.8901 31.1577C64.2266 31.1577 65.1147 30.5684 65.5962 29.5225H65.6377V30.2529C65.6377 30.8008 65.9863 31.1577 66.501 31.1577C67.0156 31.1577 67.356 30.8008 67.356 30.2446V23.0645C67.356 22.4668 66.9907 22.1099 66.4595 22.1099C65.9365 22.1099 65.563 22.4668 65.563 23.0645V27.356C65.563 28.7173 64.7827 29.6138 63.4878 29.6138C62.251 29.6138 61.6201 28.8999 61.6201 27.5718V23.0645C61.6201 22.4668 61.2466 22.1099 60.7236 22.1099C60.1924 22.1099 59.8271 22.4668 59.8271 23.0645V27.9204C59.8271 29.9209 60.9893 31.1577 62.8901 31.1577ZM69.647 31.1577C69.9541 31.1577 70.1533 31.0498 70.3525 30.7427L72.3613 27.7876H72.4028L74.4116 30.7593C74.5859 31.0249 74.7935 31.1577 75.1089 31.1577C75.5986 31.1577 75.9639 30.834 75.9639 30.3691C75.9639 30.1865 75.9058 30.0122 75.7729 29.8213L73.4736 26.584L75.7812 23.4463C75.9307 23.2554 75.9888 23.0811 75.9888 22.8735C75.9888 22.4336 75.6318 22.1099 75.1255 22.1099C74.8184 22.1099 74.6191 22.2427 74.4033 22.583L72.4775 25.4302H72.4443L70.4771 22.5581C70.2612 22.2261 70.0786 22.1099 69.7383 22.1099C69.2485 22.1099 68.875 22.4419 68.875 22.8818C68.875 23.0894 68.9331 23.2637 69.0576 23.438L71.3652 26.6421L69.0244 29.8379C68.8833 30.0371 68.8169 30.2114 68.8169 30.4023C68.8169 30.8423 69.1655 31.1577 69.647 31.1577ZM82.0649 31.1577C82.6294 31.1577 82.9946 30.7925 82.9946 30.1948V26.3931H85.5928L87.8423 30.5103C88.1162 31 88.3403 31.1577 88.772 31.1577C89.3115 31.1577 89.7183 30.7925 89.7183 30.3027C89.7183 30.0952 89.6685 29.9209 89.519 29.6636L87.4937 26.0859C88.9297 25.5796 89.7764 24.2847 89.7764 22.6826C89.7764 20.4497 88.2407 19.022 85.7754 19.022H82.0649C81.4839 19.022 81.1353 19.3872 81.1353 19.9849V30.1948C81.1353 30.7925 81.4922 31.1577 82.0649 31.1577ZM82.9946 24.8906V20.5825H85.5513C86.9873 20.5825 87.8589 21.396 87.8589 22.7324C87.8589 24.1021 87.0371 24.8906 85.6011 24.8906H82.9946ZM95.1138 31.166C96.7407 31.166 98.0107 30.5103 98.5835 29.3647C98.6582 29.1904 98.708 29.0244 98.708 28.8833C98.708 28.4351 98.3926 28.1528 97.9609 28.1528C97.7036 28.1528 97.521 28.2441 97.3301 28.4683C96.666 29.373 96.0518 29.7134 95.0723 29.7134C93.6445 29.7134 92.748 28.7173 92.748 27.1235V27.082H98.0273C98.5835 27.082 98.9155 26.75 98.9155 26.1689C98.9155 23.7866 97.3135 22.1099 94.9893 22.1099C92.5156 22.1099 90.9385 23.9028 90.9385 26.6753C90.9385 29.4976 92.4824 31.166 95.1138 31.166ZM92.7563 25.8286C92.8477 24.4673 93.7441 23.5542 94.981 23.5542C96.2261 23.5542 97.0811 24.459 97.1226 25.8286H92.7563ZM103.589 31.1494C104.95 31.1494 105.872 30.4688 106.32 29.4478H106.345V30.2612C106.345 30.8257 106.751 31.1577 107.258 31.1577C107.781 31.1577 108.146 30.8257 108.146 30.2612V19.8105C108.146 19.2212 107.772 18.8643 107.25 18.8643C106.718 18.8643 106.345 19.2212 106.345 19.8105V23.7202H106.312C105.822 22.7573 104.826 22.1265 103.572 22.1265C101.381 22.1265 99.9199 23.8779 99.9199 26.6338C99.9199 29.3896 101.381 31.1494 103.589 31.1494ZM104.062 29.6304C102.643 29.6304 101.754 28.4766 101.754 26.6338C101.754 24.7993 102.643 23.6372 104.062 23.6372C105.44 23.6372 106.361 24.8242 106.361 26.6338C106.361 28.46 105.44 29.6304 104.062 29.6304ZM111.134 31.1328C111.707 31.1328 112.064 30.7676 112.064 30.1699V25.6958H118.215V30.1699C118.215 30.7676 118.563 31.1328 119.145 31.1328C119.717 31.1328 120.074 30.7676 120.074 30.1699V19.8521C120.074 19.2544 119.717 18.8892 119.145 18.8892C118.563 18.8892 118.215 19.2544 118.215 19.8521V24.0854H112.064V19.8521C112.064 19.2544 111.707 18.8892 111.134 18.8892C110.553 18.8892 110.205 19.2544 110.205 19.8521V30.1699C110.205 30.7676 110.553 31.1328 111.134 31.1328ZM124.382 31.1494C125.52 31.1494 126.632 30.5352 127.138 29.564H127.18V30.3027C127.196 30.834 127.537 31.1577 128.035 31.1577C128.541 31.1577 128.898 30.8174 128.898 30.2529V24.9819C128.898 23.2305 127.545 22.1099 125.428 22.1099C123.859 22.1099 122.54 22.7407 122.083 23.7285C121.975 23.9277 121.925 24.127 121.925 24.3096C121.925 24.7578 122.249 25.0566 122.697 25.0566C123.013 25.0566 123.245 24.9404 123.428 24.6748C123.926 23.8779 124.499 23.5708 125.362 23.5708C126.458 23.5708 127.113 24.1519 127.113 25.123V25.7954L124.714 25.9365C122.647 26.0527 121.469 26.9907 121.469 28.5181C121.469 30.0869 122.672 31.1494 124.382 31.1494ZM124.872 29.73C123.917 29.73 123.278 29.2319 123.278 28.4683C123.278 27.7212 123.884 27.248 124.955 27.1733L127.113 27.0405V27.7295C127.113 28.8667 126.125 29.73 124.872 29.73ZM131.164 28.9082C131.164 30.3525 131.911 31.0747 133.38 31.0747H133.472C134.352 31.0747 134.767 30.8008 134.767 30.2612C134.767 29.8379 134.509 29.6304 133.995 29.5806L133.854 29.5723C133.206 29.5225 132.965 29.207 132.965 28.5098V23.687H133.986C134.451 23.687 134.733 23.4214 134.733 22.9814C134.733 22.5415 134.451 22.2676 133.986 22.2676H132.965V20.9727C132.965 20.3999 132.608 20.0181 132.069 20.0181C131.521 20.0181 131.164 20.3999 131.164 20.9727V22.2676H130.533C130.068 22.2676 129.786 22.5332 129.786 22.9814C129.786 23.4214 130.068 23.687 130.533 23.687H131.164V28.9082Z" fill="white"/>
<path d="M37.7861 12H39.1362C40.6025 12 41.4639 11.0874 41.4639 9.53223C41.4639 7.98047 40.5991 7.06787 39.1362 7.06787H37.7861C37.5981 7.06787 37.4785 7.19092 37.4785 7.38574V11.6821C37.4785 11.877 37.5981 12 37.7861 12ZM38.0938 11.4463V7.62158H39.0952C40.2163 7.62158 40.835 8.30518 40.835 9.53906C40.835 10.7627 40.2129 11.4463 39.0952 11.4463H38.0938ZM43.6104 12.0615C44.5913 12.0615 45.2544 11.354 45.2544 10.2227C45.2544 9.08789 44.5913 8.38379 43.6104 8.38379C42.626 8.38379 41.9629 9.08789 41.9629 10.2227C41.9629 11.354 42.626 12.0615 43.6104 12.0615ZM43.6104 11.5386C42.9814 11.5386 42.5679 11.0601 42.5679 10.2227C42.5679 9.38525 42.9814 8.90674 43.6104 8.90674C44.2393 8.90674 44.6494 9.38525 44.6494 10.2227C44.6494 11.0601 44.2393 11.5386 43.6104 11.5386ZM46.8574 12.0615C47.0454 12.0615 47.1753 11.9624 47.23 11.7744L47.9648 9.24854H47.9785L48.7168 11.7744C48.7749 11.9761 48.8877 12.0615 49.0859 12.0615C49.2705 12.0615 49.3936 11.9658 49.4482 11.7744L50.3164 8.79395C50.3335 8.73584 50.3403 8.68457 50.3403 8.64014C50.3403 8.48291 50.2275 8.38379 50.0498 8.38379C49.9028 8.38379 49.8242 8.45215 49.7798 8.62646L49.0791 11.3369H49.0654L48.3135 8.64697C48.2656 8.47266 48.1528 8.38379 47.9751 8.38379C47.7939 8.38379 47.6743 8.47607 47.6265 8.65039L46.8813 11.3369H46.8677L46.167 8.62646C46.1226 8.45215 46.0439 8.38379 45.897 8.38379C45.7192 8.38379 45.6064 8.48291 45.6064 8.64014C45.6064 8.68457 45.6133 8.73584 45.6304 8.79395L46.4985 11.7744C46.5566 11.9727 46.6694 12.0615 46.8574 12.0615ZM51.1641 12.0615C51.3384 12.0615 51.4614 11.9316 51.4614 11.7437V9.9082C51.4614 9.30664 51.8271 8.91016 52.3877 8.91016C52.9346 8.91016 53.2046 9.22461 53.2046 9.79883V11.7437C53.2046 11.9316 53.3276 12.0615 53.502 12.0615C53.6763 12.0615 53.7993 11.9316 53.7993 11.7437V9.69287C53.7993 8.88623 53.3481 8.38379 52.5688 8.38379C52.0186 8.38379 51.6392 8.62988 51.4409 9.0127H51.4272V8.68457C51.4272 8.50684 51.311 8.38379 51.147 8.38379C50.9829 8.38379 50.8667 8.50684 50.8667 8.68457V11.7437C50.8667 11.9316 50.9897 12.0615 51.1641 12.0615ZM54.8862 12.0615C55.0605 12.0615 55.1836 11.9316 55.1836 11.7437V7.32422C55.1836 7.13623 55.0605 7.00635 54.8862 7.00635C54.7119 7.00635 54.5889 7.13623 54.5889 7.32422V11.7437C54.5889 11.9316 54.7119 12.0615 54.8862 12.0615ZM57.46 12.0615C58.4409 12.0615 59.104 11.354 59.104 10.2227C59.104 9.08789 58.4409 8.38379 57.46 8.38379C56.4756 8.38379 55.8125 9.08789 55.8125 10.2227C55.8125 11.354 56.4756 12.0615 57.46 12.0615ZM57.46 11.5386C56.8311 11.5386 56.4175 11.0601 56.4175 10.2227C56.4175 9.38525 56.8311 8.90674 57.46 8.90674C58.0889 8.90674 58.499 9.38525 58.499 10.2227C58.499 11.0601 58.0889 11.5386 57.46 11.5386ZM60.7412 12.0615C61.2197 12.0615 61.6743 11.7949 61.8862 11.3882H61.8999V11.7607C61.8999 11.9385 62.0161 12.0615 62.1836 12.0615C62.3477 12.0615 62.4639 11.9385 62.4639 11.7607V9.54248C62.4639 8.83496 61.9375 8.38379 61.1035 8.38379C60.5259 8.38379 60.0063 8.64014 59.8047 9.02979C59.7568 9.11523 59.7329 9.20068 59.7329 9.27588C59.7329 9.43652 59.8423 9.54248 59.9961 9.54248C60.1089 9.54248 60.1875 9.49805 60.2422 9.39893C60.4404 9.04688 60.7036 8.90674 61.0898 8.90674C61.582 8.90674 61.8691 9.1665 61.8691 9.60059V9.89795L60.8472 9.95605C60.0269 10.0039 59.5586 10.3867 59.5586 10.9951C59.5586 11.6343 60.0337 12.0615 60.7412 12.0615ZM60.8745 11.5557C60.4473 11.5557 60.1636 11.3335 60.1636 10.9951C60.1636 10.6602 60.437 10.4482 60.9155 10.4175L61.8691 10.3594V10.6499C61.8691 11.1626 61.4351 11.5557 60.8745 11.5557ZM64.5659 12.0615C65.123 12.0615 65.4922 11.7881 65.687 11.3643H65.6973V11.771C65.6973 11.9453 65.834 12.0615 66.0015 12.0615C66.1724 12.0615 66.292 11.9419 66.292 11.771V7.32422C66.292 7.13623 66.1689 7.00635 65.9946 7.00635C65.8203 7.00635 65.6973 7.13623 65.6973 7.32422V9.02295H65.6836C65.4717 8.6333 65.0615 8.38379 64.5522 8.38379C63.6567 8.38379 63.0449 9.1084 63.0449 10.2227C63.0449 11.3369 63.6602 12.0615 64.5659 12.0615ZM64.6787 11.5386C64.0498 11.5386 63.6533 11.0293 63.6533 10.2227C63.6533 9.41943 64.0498 8.90674 64.6787 8.90674C65.2905 8.90674 65.7007 9.42969 65.7007 10.2227C65.7007 11.019 65.2905 11.5386 64.6787 11.5386ZM69.0195 12.0615C69.2007 12.0615 69.3169 11.9385 69.3169 11.7471V8.93408H69.8398C69.9937 8.93408 70.0928 8.84521 70.0928 8.69141C70.0928 8.54443 69.9937 8.44531 69.8398 8.44531H69.3135V8.06934C69.3135 7.70361 69.4502 7.54639 69.7646 7.54639C69.8398 7.54639 69.8979 7.53955 69.9492 7.52588C70.0586 7.49512 70.1099 7.42676 70.1099 7.31738C70.1099 7.14307 69.9424 7.04053 69.6279 7.04053C69.0469 7.04053 68.7222 7.36865 68.7222 8.04883V8.44531H68.4282C68.2744 8.44531 68.1753 8.54443 68.1753 8.69141C68.1753 8.84521 68.2744 8.93408 68.4282 8.93408H68.7222V11.7471C68.7222 11.9385 68.8384 12.0615 69.0195 12.0615ZM71.959 12.0615C72.9399 12.0615 73.603 11.354 73.603 10.2227C73.603 9.08789 72.9399 8.38379 71.959 8.38379C70.9746 8.38379 70.3115 9.08789 70.3115 10.2227C70.3115 11.354 70.9746 12.0615 71.959 12.0615ZM71.959 11.5386C71.3301 11.5386 70.9165 11.0601 70.9165 10.2227C70.9165 9.38525 71.3301 8.90674 71.959 8.90674C72.5879 8.90674 72.998 9.38525 72.998 10.2227C72.998 11.0601 72.5879 11.5386 71.959 11.5386ZM74.502 12.0615C74.6763 12.0615 74.7993 11.9316 74.7993 11.7437V9.79199C74.7993 9.3374 75.0283 8.95117 75.5649 8.95117C75.6948 8.95117 75.7871 8.92725 75.8486 8.87598C75.9102 8.82812 75.9409 8.75977 75.9409 8.66748C75.9409 8.58545 75.917 8.51709 75.8657 8.46924C75.8076 8.41455 75.7153 8.38379 75.5854 8.38379C75.23 8.38379 74.8813 8.65723 74.7788 9.02637H74.7651V8.68457C74.7651 8.50684 74.6489 8.38379 74.4849 8.38379C74.3208 8.38379 74.2046 8.50684 74.2046 8.68457V11.7437C74.2046 11.9316 74.3276 12.0615 74.502 12.0615Z" fill="white"/>
<g clip-path="url(#clip0_6_14)">
<path d="M24.2877 21.6575C26.1712 21.6575 28.8986 21.2657 28.8986 19.0205C28.8985 18.8488 28.8834 18.6773 28.8534 18.5082L27.7384 13.626C27.4822 12.5562 27.2562 12.0589 25.3726 11.1247C23.911 10.3712 20.7315 9.15068 19.7822 9.15068C18.8931 9.15068 18.637 10.2808 17.5973 10.2808C16.5877 10.2808 15.8493 9.43698 14.9 9.43698C13.9959 9.43698 13.4082 10.0548 12.9562 11.3205C12.9562 11.3205 11.6904 14.8918 11.5247 15.4192C11.4998 15.5125 11.4896 15.6091 11.4945 15.7055C11.4795 17.0918 16.9493 21.6425 24.2877 21.6575ZM29.1849 19.9397C29.4411 21.1753 29.4411 21.311 29.4411 21.4616C29.4411 23.5712 27.0753 24.7466 23.9562 24.7466C16.9041 24.7466 10.7411 20.6178 10.7411 17.8904C10.7404 17.5121 10.8173 17.1378 10.9671 16.7904C8.43562 16.911 5.15068 17.363 5.15068 20.2562C5.15068 25.0027 16.3918 30.8493 25.2822 30.8493C32.1082 30.8493 33.826 27.7603 33.826 25.3192C33.826 23.4055 32.1685 21.2356 29.1849 19.9397Z" fill="#EE0000"/>
<path d="M29.1849 19.9397C29.4411 21.1753 29.4411 21.311 29.4411 21.4616C29.4411 23.5712 27.0753 24.7466 23.9562 24.7466C16.9041 24.7466 10.7411 20.6178 10.7411 17.8904C10.7404 17.5121 10.8173 17.1378 10.9671 16.7904L11.5247 15.4192C11.4998 15.5125 11.4896 15.6091 11.4945 15.7055C11.4945 17.0918 16.9644 21.6425 24.2877 21.6425C26.1712 21.6425 28.8986 21.2507 28.8986 19.0055C28.8985 18.8337 28.8834 18.6623 28.8534 18.4931L29.1849 19.9397Z" fill="black"/>
</g>
<defs>
<clipPath id="clip0_6_14">
<rect width="28.9767" height="22" fill="white" transform="translate(5 9)"/>
</clipPath>
</defs>
</svg>
