<svg width="140" height="40" viewBox="0 0 140 40" fill="none" xmlns="http://www.w3.org/2000/svg">
<rect x="0.5" y="0.5" width="139" height="39" rx="5.5" fill="black" stroke="#DDDDDD"/>
<path d="M41.7285 31.1406C42.3438 31.1406 42.6865 30.8506 42.8799 30.1738L45.4023 21.4375H45.4902L48.0215 30.1738C48.2148 30.8594 48.5488 31.1406 49.1729 31.1406C49.7705 31.1406 50.1045 30.8418 50.2979 30.1738L53.2334 19.6621C53.3037 19.4248 53.3301 19.2402 53.3301 19.0645C53.3301 18.5283 52.9434 18.1768 52.3633 18.1768C51.8535 18.1768 51.5283 18.4492 51.3965 18.9941L49.1201 28.249H49.0498L46.5625 19.1436C46.3867 18.4756 46.0439 18.1768 45.4551 18.1768C44.8486 18.1768 44.5146 18.4668 44.3301 19.1699L41.8516 28.249H41.7812L39.4961 18.9941C39.373 18.458 39.0566 18.1768 38.5381 18.1768C37.958 18.1768 37.5713 18.5283 37.5713 19.0645C37.5713 19.2402 37.5977 19.4248 37.6592 19.6621L40.6035 30.165C40.7881 30.8418 41.1221 31.1406 41.7285 31.1406ZM55.8613 20.3564C56.4766 20.3564 56.9688 19.8643 56.9688 19.2666C56.9688 18.6602 56.4766 18.1855 55.8613 18.1855C55.2549 18.1855 54.7627 18.6602 54.7627 19.2666C54.7627 19.8643 55.2549 20.3564 55.8613 20.3564ZM55.8613 31.167C56.4326 31.167 56.8105 30.7715 56.8105 30.165V22.5977C56.8105 21.9824 56.4326 21.5869 55.8613 21.5869C55.29 21.5869 54.9121 21.9824 54.9121 22.5977V30.165C54.9121 30.7715 55.29 31.167 55.8613 31.167ZM59.7021 31.167C60.2559 31.167 60.6514 30.7891 60.6514 30.165V25.6123C60.6514 24.1797 61.5127 23.2305 62.8486 23.2305C64.167 23.2305 64.8174 23.9951 64.8174 25.3838V30.165C64.8174 30.7891 65.2129 31.167 65.7666 31.167C66.3291 31.167 66.7246 30.7891 66.7246 30.165V25.0146C66.7246 22.8965 65.5557 21.5957 63.5166 21.5957C62.0928 21.5957 61.126 22.2285 60.625 23.2832H60.5811V22.5537C60.5811 21.9648 60.2031 21.5869 59.6582 21.5869C59.1045 21.5869 58.7529 21.9648 58.7529 22.5449V30.165C58.7529 30.7891 59.1396 31.167 59.7021 31.167ZM72.0332 31.1582C73.4746 31.1582 74.4502 30.4375 74.9248 29.3564H74.9512V30.2178C74.9512 30.8154 75.3818 31.167 75.918 31.167C76.4717 31.167 76.8584 30.8154 76.8584 30.2178V19.1523C76.8584 18.5283 76.4629 18.1504 75.9092 18.1504C75.3467 18.1504 74.9512 18.5283 74.9512 19.1523V23.292H74.916C74.3975 22.2725 73.3428 21.6045 72.0156 21.6045C69.6953 21.6045 68.1484 23.459 68.1484 26.377C68.1484 29.2949 69.6953 31.1582 72.0332 31.1582ZM72.5342 29.5498C71.0312 29.5498 70.0908 28.3281 70.0908 26.377C70.0908 24.4346 71.0312 23.2041 72.5342 23.2041C73.9932 23.2041 74.9688 24.4609 74.9688 26.377C74.9688 28.3105 73.9932 29.5498 72.5342 29.5498ZM82.7822 31.1758C85.4277 31.1758 87.168 29.3564 87.168 26.377C87.168 23.4062 85.4189 21.5869 82.7822 21.5869C80.1455 21.5869 78.3965 23.4062 78.3965 26.377C78.3965 29.3564 80.1367 31.1758 82.7822 31.1758ZM82.7822 29.6113C81.2969 29.6113 80.3301 28.4336 80.3301 26.377C80.3301 24.3291 81.2969 23.1514 82.7822 23.1514C84.2676 23.1514 85.2344 24.3291 85.2344 26.377C85.2344 28.4336 84.2764 29.6113 82.7822 29.6113ZM91.3779 31.167C92.0195 31.167 92.415 30.8594 92.5908 30.209L94.3047 24.0742H94.3486L96.0801 30.209C96.2559 30.8857 96.625 31.167 97.2842 31.167C97.9082 31.167 98.2949 30.8594 98.4795 30.209L100.589 22.9404C100.65 22.7207 100.677 22.5625 100.677 22.4043C100.677 21.9121 100.316 21.5869 99.7627 21.5869C99.2881 21.5869 99.0156 21.8418 98.8926 22.3779L97.2314 29.0312H97.1875L95.4209 22.4482C95.2891 21.8857 94.9199 21.5869 94.3486 21.5869C93.7686 21.5869 93.3906 21.8857 93.2588 22.4482L91.501 29.0312H91.4658L89.8047 22.3779C89.6816 21.8418 89.4004 21.5869 88.9258 21.5869C88.3721 21.5869 88.0029 21.9121 88.0029 22.4043C88.0029 22.5625 88.0293 22.7295 88.0996 22.9404L90.209 30.209C90.4023 30.877 90.7539 31.167 91.3779 31.167ZM105.353 31.1758C107.638 31.1758 109.176 30.0332 109.176 28.3193C109.176 26.9482 108.429 26.2539 106.486 25.8057L105.054 25.4717C104.078 25.2432 103.63 24.8389 103.63 24.2588C103.63 23.5381 104.333 23.0371 105.353 23.0371C106.284 23.0371 106.847 23.4062 107.26 24.1094C107.444 24.4082 107.717 24.5137 108.024 24.5137C108.499 24.5137 108.763 24.2324 108.763 23.8105C108.763 23.7227 108.745 23.6348 108.728 23.5293C108.464 22.4395 107.093 21.5869 105.423 21.5869C103.226 21.5869 101.775 22.6943 101.775 24.3643C101.775 25.6826 102.654 26.5615 104.447 26.9834L105.906 27.3262C106.899 27.5635 107.26 27.8887 107.26 28.4951C107.26 29.2598 106.53 29.7256 105.449 29.7256C104.351 29.7256 103.797 29.3916 103.322 28.6445C103.085 28.293 102.812 28.1436 102.496 28.1436C102.021 28.1436 101.679 28.4248 101.679 28.8994C101.679 29.0225 101.696 29.1543 101.758 29.2949C102.197 30.4287 103.533 31.1758 105.353 31.1758Z" fill="white"/>
<path d="M37.7861 12H39.1362C40.6025 12 41.4639 11.0874 41.4639 9.53223C41.4639 7.98047 40.5991 7.06787 39.1362 7.06787H37.7861C37.5981 7.06787 37.4785 7.19092 37.4785 7.38574V11.6821C37.4785 11.877 37.5981 12 37.7861 12ZM38.0938 11.4463V7.62158H39.0952C40.2163 7.62158 40.835 8.30518 40.835 9.53906C40.835 10.7627 40.2129 11.4463 39.0952 11.4463H38.0938ZM43.6104 12.0615C44.5913 12.0615 45.2544 11.354 45.2544 10.2227C45.2544 9.08789 44.5913 8.38379 43.6104 8.38379C42.626 8.38379 41.9629 9.08789 41.9629 10.2227C41.9629 11.354 42.626 12.0615 43.6104 12.0615ZM43.6104 11.5386C42.9814 11.5386 42.5679 11.0601 42.5679 10.2227C42.5679 9.38525 42.9814 8.90674 43.6104 8.90674C44.2393 8.90674 44.6494 9.38525 44.6494 10.2227C44.6494 11.0601 44.2393 11.5386 43.6104 11.5386ZM46.8574 12.0615C47.0454 12.0615 47.1753 11.9624 47.23 11.7744L47.9648 9.24854H47.9785L48.7168 11.7744C48.7749 11.9761 48.8877 12.0615 49.0859 12.0615C49.2705 12.0615 49.3936 11.9658 49.4482 11.7744L50.3164 8.79395C50.3335 8.73584 50.3403 8.68457 50.3403 8.64014C50.3403 8.48291 50.2275 8.38379 50.0498 8.38379C49.9028 8.38379 49.8242 8.45215 49.7798 8.62646L49.0791 11.3369H49.0654L48.3135 8.64697C48.2656 8.47266 48.1528 8.38379 47.9751 8.38379C47.7939 8.38379 47.6743 8.47607 47.6265 8.65039L46.8813 11.3369H46.8677L46.167 8.62646C46.1226 8.45215 46.0439 8.38379 45.897 8.38379C45.7192 8.38379 45.6064 8.48291 45.6064 8.64014C45.6064 8.68457 45.6133 8.73584 45.6304 8.79395L46.4985 11.7744C46.5566 11.9727 46.6694 12.0615 46.8574 12.0615ZM51.1641 12.0615C51.3384 12.0615 51.4614 11.9316 51.4614 11.7437V9.9082C51.4614 9.30664 51.8271 8.91016 52.3877 8.91016C52.9346 8.91016 53.2046 9.22461 53.2046 9.79883V11.7437C53.2046 11.9316 53.3276 12.0615 53.502 12.0615C53.6763 12.0615 53.7993 11.9316 53.7993 11.7437V9.69287C53.7993 8.88623 53.3481 8.38379 52.5688 8.38379C52.0186 8.38379 51.6392 8.62988 51.4409 9.0127H51.4272V8.68457C51.4272 8.50684 51.311 8.38379 51.147 8.38379C50.9829 8.38379 50.8667 8.50684 50.8667 8.68457V11.7437C50.8667 11.9316 50.9897 12.0615 51.1641 12.0615ZM54.8862 12.0615C55.0605 12.0615 55.1836 11.9316 55.1836 11.7437V7.32422C55.1836 7.13623 55.0605 7.00635 54.8862 7.00635C54.7119 7.00635 54.5889 7.13623 54.5889 7.32422V11.7437C54.5889 11.9316 54.7119 12.0615 54.8862 12.0615ZM57.46 12.0615C58.4409 12.0615 59.104 11.354 59.104 10.2227C59.104 9.08789 58.4409 8.38379 57.46 8.38379C56.4756 8.38379 55.8125 9.08789 55.8125 10.2227C55.8125 11.354 56.4756 12.0615 57.46 12.0615ZM57.46 11.5386C56.8311 11.5386 56.4175 11.0601 56.4175 10.2227C56.4175 9.38525 56.8311 8.90674 57.46 8.90674C58.0889 8.90674 58.499 9.38525 58.499 10.2227C58.499 11.0601 58.0889 11.5386 57.46 11.5386ZM60.7412 12.0615C61.2197 12.0615 61.6743 11.7949 61.8862 11.3882H61.8999V11.7607C61.8999 11.9385 62.0161 12.0615 62.1836 12.0615C62.3477 12.0615 62.4639 11.9385 62.4639 11.7607V9.54248C62.4639 8.83496 61.9375 8.38379 61.1035 8.38379C60.5259 8.38379 60.0063 8.64014 59.8047 9.02979C59.7568 9.11523 59.7329 9.20068 59.7329 9.27588C59.7329 9.43652 59.8423 9.54248 59.9961 9.54248C60.1089 9.54248 60.1875 9.49805 60.2422 9.39893C60.4404 9.04688 60.7036 8.90674 61.0898 8.90674C61.582 8.90674 61.8691 9.1665 61.8691 9.60059V9.89795L60.8472 9.95605C60.0269 10.0039 59.5586 10.3867 59.5586 10.9951C59.5586 11.6343 60.0337 12.0615 60.7412 12.0615ZM60.8745 11.5557C60.4473 11.5557 60.1636 11.3335 60.1636 10.9951C60.1636 10.6602 60.437 10.4482 60.9155 10.4175L61.8691 10.3594V10.6499C61.8691 11.1626 61.4351 11.5557 60.8745 11.5557ZM64.5659 12.0615C65.123 12.0615 65.4922 11.7881 65.687 11.3643H65.6973V11.771C65.6973 11.9453 65.834 12.0615 66.0015 12.0615C66.1724 12.0615 66.292 11.9419 66.292 11.771V7.32422C66.292 7.13623 66.1689 7.00635 65.9946 7.00635C65.8203 7.00635 65.6973 7.13623 65.6973 7.32422V9.02295H65.6836C65.4717 8.6333 65.0615 8.38379 64.5522 8.38379C63.6567 8.38379 63.0449 9.1084 63.0449 10.2227C63.0449 11.3369 63.6602 12.0615 64.5659 12.0615ZM64.6787 11.5386C64.0498 11.5386 63.6533 11.0293 63.6533 10.2227C63.6533 9.41943 64.0498 8.90674 64.6787 8.90674C65.2905 8.90674 65.7007 9.42969 65.7007 10.2227C65.7007 11.019 65.2905 11.5386 64.6787 11.5386ZM69.0195 12.0615C69.2007 12.0615 69.3169 11.9385 69.3169 11.7471V8.93408H69.8398C69.9937 8.93408 70.0928 8.84521 70.0928 8.69141C70.0928 8.54443 69.9937 8.44531 69.8398 8.44531H69.3135V8.06934C69.3135 7.70361 69.4502 7.54639 69.7646 7.54639C69.8398 7.54639 69.8979 7.53955 69.9492 7.52588C70.0586 7.49512 70.1099 7.42676 70.1099 7.31738C70.1099 7.14307 69.9424 7.04053 69.6279 7.04053C69.0469 7.04053 68.7222 7.36865 68.7222 8.04883V8.44531H68.4282C68.2744 8.44531 68.1753 8.54443 68.1753 8.69141C68.1753 8.84521 68.2744 8.93408 68.4282 8.93408H68.7222V11.7471C68.7222 11.9385 68.8384 12.0615 69.0195 12.0615ZM71.959 12.0615C72.9399 12.0615 73.603 11.354 73.603 10.2227C73.603 9.08789 72.9399 8.38379 71.959 8.38379C70.9746 8.38379 70.3115 9.08789 70.3115 10.2227C70.3115 11.354 70.9746 12.0615 71.959 12.0615ZM71.959 11.5386C71.3301 11.5386 70.9165 11.0601 70.9165 10.2227C70.9165 9.38525 71.3301 8.90674 71.959 8.90674C72.5879 8.90674 72.998 9.38525 72.998 10.2227C72.998 11.0601 72.5879 11.5386 71.959 11.5386ZM74.502 12.0615C74.6763 12.0615 74.7993 11.9316 74.7993 11.7437V9.79199C74.7993 9.3374 75.0283 8.95117 75.5649 8.95117C75.6948 8.95117 75.7871 8.92725 75.8486 8.87598C75.9102 8.82812 75.9409 8.75977 75.9409 8.66748C75.9409 8.58545 75.917 8.51709 75.8657 8.46924C75.8076 8.41455 75.7153 8.38379 75.5854 8.38379C75.23 8.38379 74.8813 8.65723 74.7788 9.02637H74.7651V8.68457C74.7651 8.50684 74.6489 8.38379 74.4849 8.38379C74.3208 8.38379 74.2046 8.50684 74.2046 8.68457V11.7437C74.2046 11.9316 74.3276 12.0615 74.502 12.0615Z" fill="white"/>
<path d="M9 11C9 10.4477 9.44772 10 10 10H19V20H9V11Z" fill="#E15F37"/>
<path d="M19 10H28C28.5523 10 29 10.4477 29 11V20H19V10Z" fill="#8EBA3A"/>
<path d="M9 20H19V30H10C9.44772 30 9 29.5523 9 29V20Z" fill="#4AA3EA"/>
<path d="M19 20H29V29C29 29.5523 28.5523 30 28 30H19V20Z" fill="#F4BD42"/>
</svg>
