<svg width="4378" height="1076" viewBox="0 0 4378 1076" fill="none" xmlns="http://www.w3.org/2000/svg">
<rect x="26" y="12" width="4352" height="1024" rx="64" fill="white"/>
<g clip-path="url(#clip0_1_19)" filter="url(#filter0_d_1_19)">
<g filter="url(#filter1_d_1_19)">
<path d="M129.903 804.906L128.001 265.982C127.729 188.864 196.071 126.106 280.647 125.808L792.465 124.001C877.042 123.703 945.825 185.976 946.097 263.094L947.999 802.018C948.271 879.136 879.929 941.894 795.353 942.192L283.535 943.999C198.958 944.297 130.175 882.024 129.903 804.906Z" fill="url(#paint0_linear_1_19)"/>
</g>
<g filter="url(#filter2_d_1_19)">
<path d="M538 245.719C697.213 245.719 826.281 374.787 826.281 534C826.281 693.213 697.213 822.281 538 822.281C378.787 822.281 249.719 693.213 249.719 534C249.719 374.787 378.787 245.719 538 245.719Z" fill="#00B896"/>
</g>
<path d="M707.938 562.102V533.801C707.938 440.035 631.733 364 537.748 364C485.955 363.936 436.957 387.488 404.655 427.973M368.062 505.85V534.152C368.062 628.022 444.229 704 538.252 704C589.883 703.925 638.729 680.577 671.213 640.445" stroke="white" stroke-width="56" stroke-miterlimit="10" stroke-linecap="round" stroke-linejoin="round"/>
<path d="M325.263 534L367.05 492.212L410.737 534M750.737 534L708.95 575.788L665.263 534" stroke="white" stroke-width="56" stroke-miterlimit="10" stroke-linecap="round" stroke-linejoin="round"/>
</g>
<path d="M1308.5 719.5C1322.5 719.5 1330 713.25 1334.5 698.25L1413.25 429.75H1415.75L1494.5 698.25C1499 713.25 1506.5 719.5 1520.5 719.5C1534 719.5 1541.5 712.75 1545.75 698L1634 384.75C1635.5 379.25 1636 376.25 1636 372.25C1636 360.25 1626.75 351.75 1613.75 351.75C1602.25 351.75 1594.5 358 1591.5 369.75L1520.5 649.75H1518.5L1442.25 376C1437.5 359 1429.5 351.75 1414.75 351.75C1399.5 351.75 1391.5 359 1386.5 377L1310.5 649.75H1308.5L1237.5 369.75C1234.5 358.25 1227 351.75 1215.25 351.75C1202.25 351.75 1193 360.25 1193 372.25C1193 376.25 1193.5 379.25 1195 384.75L1283.25 698C1287.5 712.75 1295 719.5 1308.5 719.5ZM1760.75 720.5C1808.25 720.5 1844.75 700.5 1861.5 665.25C1863.5 660.5 1864.75 656 1864.75 652.5C1864.75 641 1857 633.5 1845.5 633.5C1838.75 633.5 1833.75 636 1829.25 642.25C1809 671.75 1790 682.75 1759 682.75C1712.5 682.75 1683.75 650.25 1683.75 597.75H1846.25C1861.25 597.75 1870.25 588.25 1870.25 572.5C1870.25 501.25 1823.5 451.5 1757 451.5C1685.25 451.5 1639 505 1639 587C1639 671 1684 720.5 1760.75 720.5ZM1684 563.75C1686.75 519 1715.75 489.25 1756.25 489.25C1796.5 489.25 1824.25 518.75 1825.25 563.75H1684ZM1943.5 716H2057.25C2134 716 2179.5 678.25 2179.5 614.75C2179.5 566.75 2148 532.25 2099 526V524C2133.75 517.75 2161.25 482.75 2161.25 445.25C2161.25 391.25 2119.5 355.25 2057.75 355.25H1943.5C1929.75 355.25 1921 364.25 1921 378.5V692.75C1921 707 1929.75 716 1943.5 716ZM1966 510.75V395H2047.5C2091.25 395 2115.75 414.75 2115.75 450.5C2115.75 489.5 2086.75 510.75 2033.5 510.75H1966ZM1966 676.25V549.5H2046.25C2103.75 549.5 2133.25 570.75 2133.25 612.5C2133.25 654.25 2104.75 676.25 2050.5 676.25H1966ZM2332.75 720.5C2380.25 720.5 2416.75 700.5 2433.5 665.25C2435.5 660.5 2436.75 656 2436.75 652.5C2436.75 641 2429 633.5 2417.5 633.5C2410.75 633.5 2405.75 636 2401.25 642.25C2381 671.75 2362 682.75 2331 682.75C2284.5 682.75 2255.75 650.25 2255.75 597.75H2418.25C2433.25 597.75 2442.25 588.25 2442.25 572.5C2442.25 501.25 2395.5 451.5 2329 451.5C2257.25 451.5 2211 505 2211 587C2211 671 2256 720.5 2332.75 720.5ZM2256 563.75C2258.75 519 2287.75 489.25 2328.25 489.25C2368.5 489.25 2396.25 518.75 2397.25 563.75H2256ZM2595.25 720.5C2642.75 720.5 2679.25 700.5 2696 665.25C2698 660.5 2699.25 656 2699.25 652.5C2699.25 641 2691.5 633.5 2680 633.5C2673.25 633.5 2668.25 636 2663.75 642.25C2643.5 671.75 2624.5 682.75 2593.5 682.75C2547 682.75 2518.25 650.25 2518.25 597.75H2680.75C2695.75 597.75 2704.75 588.25 2704.75 572.5C2704.75 501.25 2658 451.5 2591.5 451.5C2519.75 451.5 2473.5 505 2473.5 587C2473.5 671 2518.5 720.5 2595.25 720.5ZM2518.5 563.75C2521.25 519 2550.25 489.25 2590.75 489.25C2631 489.25 2658.75 518.75 2659.75 563.75H2518.5ZM2770.5 807.75C2783.25 807.75 2792.25 798.25 2792.25 784.5V673.75H2793.25C2808.75 702.25 2838.75 720.5 2876 720.5C2941.5 720.5 2986.25 667.5 2986.25 586C2986.25 504.5 2941.25 451.5 2875 451.5C2837.25 451.5 2807 470.75 2791 500H2790V473.5C2790 460.5 2781.5 451.5 2769.5 451.5C2757.25 451.5 2748.75 460.5 2748.75 473.5V784.5C2748.75 798.25 2757.75 807.75 2770.5 807.75ZM2866.5 682.25C2822 682.25 2792 644 2792 586C2792 528.25 2822 489.75 2866.5 489.75C2912.75 489.75 2941.75 527.25 2941.75 586C2941.75 645 2912.75 682.25 2866.5 682.25ZM3260.25 722C3341 722 3393.5 680.25 3393.5 613.5C3393.5 562.5 3363.75 532.5 3288.5 516L3248.5 507.25C3199.25 496.5 3180 477 3180 448.5C3180 411.75 3214.75 389.75 3259.75 389.75C3298.75 389.75 3328.5 405.75 3341 442.25C3345 453.75 3352 459.75 3363.5 459.75C3375.5 459.75 3384 451.75 3384 439.5C3384 434.75 3383.5 431 3382.75 428.25C3369.75 379.5 3321.25 349.25 3261 349.25C3186.25 349.25 3133.75 391 3133.75 450.5C3133.75 501.75 3165 534.5 3237.25 550.25L3277.25 559C3327.25 570 3347.25 590 3347.25 620.25C3347.25 655.75 3311.75 681.5 3262.75 681.5C3217.25 681.5 3181.75 664 3170.75 626.75C3167.25 614.75 3160.25 609 3149 609C3136.25 609 3128.25 618 3128.25 632.25C3128.25 637.5 3129.25 643 3130.75 648C3144.25 691.5 3192.5 722 3260.25 722ZM3464.75 813.25C3507.75 813.25 3529 794 3551.5 734.25L3647.5 483C3649 478.75 3649.75 474.75 3649.75 471.5C3649.75 459.75 3641 451.5 3628.5 451.5C3617.75 451.5 3612 456 3608 467.5L3536 672.5H3535.25L3463.5 467.5C3459.5 456 3453 451.5 3442.75 451.5C3430.25 451.5 3421 459.5 3421 471.5C3421 474.75 3421.75 478.75 3423.25 483L3512.75 716.25L3506.75 734.5C3496.5 766 3480.75 776 3464.25 776C3457.5 776 3455.75 775.75 3449.5 775.75C3438.5 775.75 3432 782.25 3432 791.75C3432 805.5 3443.75 813.25 3464.75 813.25ZM3710 720.5C3722.75 720.5 3731.75 711 3731.75 697.25V563C3731.75 519 3758.5 490 3799.5 490C3839.5 490 3859.25 513 3859.25 555V697.25C3859.25 711 3868.25 720.5 3881 720.5C3893.75 720.5 3902.75 711 3902.75 697.25V547.25C3902.75 488.25 3869.75 451.5 3812.75 451.5C3772.5 451.5 3744.75 469.5 3730.25 497.5H3729.25V473.5C3729.25 460.5 3720.75 451.5 3708.75 451.5C3696.75 451.5 3688.25 460.5 3688.25 473.5V697.25C3688.25 711 3697.25 720.5 3710 720.5ZM4065.5 720.5C4112.75 720.5 4154 694.5 4166.5 658.5C4167.75 654.5 4168.5 650.75 4168.5 647.5C4168.5 636.25 4161 628.5 4149.75 628.5C4140.25 628.5 4135.5 632 4129.25 643.75C4115.75 668.75 4096.75 682.25 4065.5 682.25C4020.75 682.25 3989.75 645.75 3989.75 586C3989.75 527.75 4020.25 489.75 4065.5 489.75C4095.5 489.75 4115.25 502.5 4129 528.25C4135 539.5 4140.25 543.5 4149.75 543.5C4161 543.5 4168.25 536 4168.25 524.5C4168.25 521.75 4167.75 518.5 4166.75 515.25C4156.75 479.25 4114 451.5 4065 451.5C3993 451.5 3945.5 504.75 3945.5 586.5C3945.5 668.75 3993.5 720.5 4065.5 720.5Z" fill="black"/>
<defs>
<filter id="filter0_d_1_19" x="-102" y="-102" width="1280" height="1280" filterUnits="userSpaceOnUse" color-interpolation-filters="sRGB">
<feFlood flood-opacity="0" result="BackgroundImageFix"/>
<feColorMatrix in="SourceAlpha" type="matrix" values="0 0 0 0 0 0 0 0 0 0 0 0 0 0 0 0 0 0 127 0" result="hardAlpha"/>
<feOffset dy="4"/>
<feGaussianBlur stdDeviation="64"/>
<feComposite in2="hardAlpha" operator="out"/>
<feColorMatrix type="matrix" values="0 0 0 0 0 0 0 0 0 0 0 0 0 0 0 0 0 0 0.25 0"/>
<feBlend mode="normal" in2="BackgroundImageFix" result="effect1_dropShadow_1_19"/>
<feBlend mode="normal" in="SourceGraphic" in2="effect1_dropShadow_1_19" result="shape"/>
</filter>
<filter id="filter1_d_1_19" x="0.000190735" y="27.9999" width="1076" height="1076" filterUnits="userSpaceOnUse" color-interpolation-filters="sRGB">
<feFlood flood-opacity="0" result="BackgroundImageFix"/>
<feColorMatrix in="SourceAlpha" type="matrix" values="0 0 0 0 0 0 0 0 0 0 0 0 0 0 0 0 0 0 127 0" result="hardAlpha"/>
<feOffset dy="32"/>
<feGaussianBlur stdDeviation="64"/>
<feComposite in2="hardAlpha" operator="out"/>
<feColorMatrix type="matrix" values="0 0 0 0 0 0 0 0 0 0 0 0 0 0 0 0 0 0 0.3 0"/>
<feBlend mode="normal" in2="BackgroundImageFix" result="effect1_dropShadow_1_19"/>
<feBlend mode="normal" in="SourceGraphic" in2="effect1_dropShadow_1_19" result="shape"/>
</filter>
<filter id="filter2_d_1_19" x="221.719" y="221.719" width="632.562" height="632.562" filterUnits="userSpaceOnUse" color-interpolation-filters="sRGB">
<feFlood flood-opacity="0" result="BackgroundImageFix"/>
<feColorMatrix in="SourceAlpha" type="matrix" values="0 0 0 0 0 0 0 0 0 0 0 0 0 0 0 0 0 0 127 0" result="hardAlpha"/>
<feOffset dy="4"/>
<feGaussianBlur stdDeviation="14"/>
<feComposite in2="hardAlpha" operator="out"/>
<feColorMatrix type="matrix" values="0 0 0 0 0 0 0 0 0 0 0 0 0 0 0 0 0 0 0.18 0"/>
<feBlend mode="normal" in2="BackgroundImageFix" result="effect1_dropShadow_1_19"/>
<feBlend mode="normal" in="SourceGraphic" in2="effect1_dropShadow_1_19" result="shape"/>
</filter>
<linearGradient id="paint0_linear_1_19" x1="539.444" y1="943.095" x2="536.556" y2="124.904" gradientUnits="userSpaceOnUse">
<stop stop-color="#F5F5F5"/>
<stop offset="1" stop-color="white"/>
</linearGradient>
<clipPath id="clip0_1_19">
<rect width="1024" height="1024" fill="white" transform="translate(26 22)"/>
</clipPath>
</defs>
</svg>
