<svg width="4352" height="1034" viewBox="0 0 4352 1034" fill="none" xmlns="http://www.w3.org/2000/svg">
<rect width="4352" height="1024" rx="64" fill="#0E1116"/>
<path d="M103.903 792.906L102.001 253.982C101.729 176.864 170.071 114.106 254.647 113.808L766.465 112.001C851.042 111.703 919.825 173.976 920.097 251.094L921.999 790.018C922.271 867.136 853.929 929.894 769.353 930.192L257.535 931.999C172.958 932.297 104.175 870.024 103.903 792.906Z" fill="url(#paint0_linear_1_19)"/>
<g filter="url(#filter0_d_1_19)">
<path d="M512 233.719C671.213 233.719 800.281 362.787 800.281 522C800.281 681.213 671.213 810.281 512 810.281C352.787 810.281 223.719 681.213 223.719 522C223.719 362.787 352.787 233.719 512 233.719Z" fill="#00B896"/>
</g>
<path d="M681.938 550.102V521.801C681.938 428.035 605.733 352 511.748 352C459.955 351.936 410.957 375.488 378.655 415.973M342.062 493.85V522.152C342.062 616.022 418.229 692 512.252 692C563.883 691.925 612.729 668.577 645.213 628.445" stroke="white" stroke-width="56" stroke-miterlimit="10" stroke-linecap="round" stroke-linejoin="round"/>
<path d="M299.263 522L341.05 480.212L384.737 522M724.737 522L682.95 563.788L639.263 522" stroke="white" stroke-width="56" stroke-miterlimit="10" stroke-linecap="round" stroke-linejoin="round"/>
<path d="M1282.5 707.5C1296.5 707.5 1304 701.25 1308.5 686.25L1387.25 417.75H1389.75L1468.5 686.25C1473 701.25 1480.5 707.5 1494.5 707.5C1508 707.5 1515.5 700.75 1519.75 686L1608 372.75C1609.5 367.25 1610 364.25 1610 360.25C1610 348.25 1600.75 339.75 1587.75 339.75C1576.25 339.75 1568.5 346 1565.5 357.75L1494.5 637.75H1492.5L1416.25 364C1411.5 347 1403.5 339.75 1388.75 339.75C1373.5 339.75 1365.5 347 1360.5 365L1284.5 637.75H1282.5L1211.5 357.75C1208.5 346.25 1201 339.75 1189.25 339.75C1176.25 339.75 1167 348.25 1167 360.25C1167 364.25 1167.5 367.25 1169 372.75L1257.25 686C1261.5 700.75 1269 707.5 1282.5 707.5ZM1734.75 708.5C1782.25 708.5 1818.75 688.5 1835.5 653.25C1837.5 648.5 1838.75 644 1838.75 640.5C1838.75 629 1831 621.5 1819.5 621.5C1812.75 621.5 1807.75 624 1803.25 630.25C1783 659.75 1764 670.75 1733 670.75C1686.5 670.75 1657.75 638.25 1657.75 585.75H1820.25C1835.25 585.75 1844.25 576.25 1844.25 560.5C1844.25 489.25 1797.5 439.5 1731 439.5C1659.25 439.5 1613 493 1613 575C1613 659 1658 708.5 1734.75 708.5ZM1658 551.75C1660.75 507 1689.75 477.25 1730.25 477.25C1770.5 477.25 1798.25 506.75 1799.25 551.75H1658ZM1917.5 704H2031.25C2108 704 2153.5 666.25 2153.5 602.75C2153.5 554.75 2122 520.25 2073 514V512C2107.75 505.75 2135.25 470.75 2135.25 433.25C2135.25 379.25 2093.5 343.25 2031.75 343.25H1917.5C1903.75 343.25 1895 352.25 1895 366.5V680.75C1895 695 1903.75 704 1917.5 704ZM1940 498.75V383H2021.5C2065.25 383 2089.75 402.75 2089.75 438.5C2089.75 477.5 2060.75 498.75 2007.5 498.75H1940ZM1940 664.25V537.5H2020.25C2077.75 537.5 2107.25 558.75 2107.25 600.5C2107.25 642.25 2078.75 664.25 2024.5 664.25H1940ZM2306.75 708.5C2354.25 708.5 2390.75 688.5 2407.5 653.25C2409.5 648.5 2410.75 644 2410.75 640.5C2410.75 629 2403 621.5 2391.5 621.5C2384.75 621.5 2379.75 624 2375.25 630.25C2355 659.75 2336 670.75 2305 670.75C2258.5 670.75 2229.75 638.25 2229.75 585.75H2392.25C2407.25 585.75 2416.25 576.25 2416.25 560.5C2416.25 489.25 2369.5 439.5 2303 439.5C2231.25 439.5 2185 493 2185 575C2185 659 2230 708.5 2306.75 708.5ZM2230 551.75C2232.75 507 2261.75 477.25 2302.25 477.25C2342.5 477.25 2370.25 506.75 2371.25 551.75H2230ZM2569.25 708.5C2616.75 708.5 2653.25 688.5 2670 653.25C2672 648.5 2673.25 644 2673.25 640.5C2673.25 629 2665.5 621.5 2654 621.5C2647.25 621.5 2642.25 624 2637.75 630.25C2617.5 659.75 2598.5 670.75 2567.5 670.75C2521 670.75 2492.25 638.25 2492.25 585.75H2654.75C2669.75 585.75 2678.75 576.25 2678.75 560.5C2678.75 489.25 2632 439.5 2565.5 439.5C2493.75 439.5 2447.5 493 2447.5 575C2447.5 659 2492.5 708.5 2569.25 708.5ZM2492.5 551.75C2495.25 507 2524.25 477.25 2564.75 477.25C2605 477.25 2632.75 506.75 2633.75 551.75H2492.5ZM2744.5 795.75C2757.25 795.75 2766.25 786.25 2766.25 772.5V661.75H2767.25C2782.75 690.25 2812.75 708.5 2850 708.5C2915.5 708.5 2960.25 655.5 2960.25 574C2960.25 492.5 2915.25 439.5 2849 439.5C2811.25 439.5 2781 458.75 2765 488H2764V461.5C2764 448.5 2755.5 439.5 2743.5 439.5C2731.25 439.5 2722.75 448.5 2722.75 461.5V772.5C2722.75 786.25 2731.75 795.75 2744.5 795.75ZM2840.5 670.25C2796 670.25 2766 632 2766 574C2766 516.25 2796 477.75 2840.5 477.75C2886.75 477.75 2915.75 515.25 2915.75 574C2915.75 633 2886.75 670.25 2840.5 670.25ZM3234.25 710C3315 710 3367.5 668.25 3367.5 601.5C3367.5 550.5 3337.75 520.5 3262.5 504L3222.5 495.25C3173.25 484.5 3154 465 3154 436.5C3154 399.75 3188.75 377.75 3233.75 377.75C3272.75 377.75 3302.5 393.75 3315 430.25C3319 441.75 3326 447.75 3337.5 447.75C3349.5 447.75 3358 439.75 3358 427.5C3358 422.75 3357.5 419 3356.75 416.25C3343.75 367.5 3295.25 337.25 3235 337.25C3160.25 337.25 3107.75 379 3107.75 438.5C3107.75 489.75 3139 522.5 3211.25 538.25L3251.25 547C3301.25 558 3321.25 578 3321.25 608.25C3321.25 643.75 3285.75 669.5 3236.75 669.5C3191.25 669.5 3155.75 652 3144.75 614.75C3141.25 602.75 3134.25 597 3123 597C3110.25 597 3102.25 606 3102.25 620.25C3102.25 625.5 3103.25 631 3104.75 636C3118.25 679.5 3166.5 710 3234.25 710ZM3438.75 801.25C3481.75 801.25 3503 782 3525.5 722.25L3621.5 471C3623 466.75 3623.75 462.75 3623.75 459.5C3623.75 447.75 3615 439.5 3602.5 439.5C3591.75 439.5 3586 444 3582 455.5L3510 660.5H3509.25L3437.5 455.5C3433.5 444 3427 439.5 3416.75 439.5C3404.25 439.5 3395 447.5 3395 459.5C3395 462.75 3395.75 466.75 3397.25 471L3486.75 704.25L3480.75 722.5C3470.5 754 3454.75 764 3438.25 764C3431.5 764 3429.75 763.75 3423.5 763.75C3412.5 763.75 3406 770.25 3406 779.75C3406 793.5 3417.75 801.25 3438.75 801.25ZM3684 708.5C3696.75 708.5 3705.75 699 3705.75 685.25V551C3705.75 507 3732.5 478 3773.5 478C3813.5 478 3833.25 501 3833.25 543V685.25C3833.25 699 3842.25 708.5 3855 708.5C3867.75 708.5 3876.75 699 3876.75 685.25V535.25C3876.75 476.25 3843.75 439.5 3786.75 439.5C3746.5 439.5 3718.75 457.5 3704.25 485.5H3703.25V461.5C3703.25 448.5 3694.75 439.5 3682.75 439.5C3670.75 439.5 3662.25 448.5 3662.25 461.5V685.25C3662.25 699 3671.25 708.5 3684 708.5ZM4039.5 708.5C4086.75 708.5 4128 682.5 4140.5 646.5C4141.75 642.5 4142.5 638.75 4142.5 635.5C4142.5 624.25 4135 616.5 4123.75 616.5C4114.25 616.5 4109.5 620 4103.25 631.75C4089.75 656.75 4070.75 670.25 4039.5 670.25C3994.75 670.25 3963.75 633.75 3963.75 574C3963.75 515.75 3994.25 477.75 4039.5 477.75C4069.5 477.75 4089.25 490.5 4103 516.25C4109 527.5 4114.25 531.5 4123.75 531.5C4135 531.5 4142.25 524 4142.25 512.5C4142.25 509.75 4141.75 506.5 4140.75 503.25C4130.75 467.25 4088 439.5 4039 439.5C3967 439.5 3919.5 492.75 3919.5 574.5C3919.5 656.75 3967.5 708.5 4039.5 708.5Z" fill="white"/>
<defs>
<filter id="filter0_d_1_19" x="195.719" y="209.719" width="632.562" height="632.562" filterUnits="userSpaceOnUse" color-interpolation-filters="sRGB">
<feFlood flood-opacity="0" result="BackgroundImageFix"/>
<feColorMatrix in="SourceAlpha" type="matrix" values="0 0 0 0 0 0 0 0 0 0 0 0 0 0 0 0 0 0 127 0" result="hardAlpha"/>
<feOffset dy="4"/>
<feGaussianBlur stdDeviation="14"/>
<feComposite in2="hardAlpha" operator="out"/>
<feColorMatrix type="matrix" values="0 0 0 0 0 0 0 0 0 0 0 0 0 0 0 0 0 0 0.18 0"/>
<feBlend mode="normal" in2="BackgroundImageFix" result="effect1_dropShadow_1_19"/>
<feBlend mode="normal" in="SourceGraphic" in2="effect1_dropShadow_1_19" result="shape"/>
</filter>
<linearGradient id="paint0_linear_1_19" x1="513.444" y1="931.095" x2="510.556" y2="112.904" gradientUnits="userSpaceOnUse">
<stop stop-color="#F5F5F5"/>
<stop offset="1" stop-color="white"/>
</linearGradient>
</defs>
</svg>
