<svg width="4161" height="1024" viewBox="0 0 4161 1024" fill="none" xmlns="http://www.w3.org/2000/svg">
<path d="M103.903 782.906L102.001 243.982C101.729 166.864 170.071 104.106 254.647 103.808L766.465 102.001C851.042 101.703 919.825 163.976 920.097 241.094L921.999 780.018C922.271 857.136 853.929 919.894 769.353 920.192L257.535 921.999C172.958 922.297 104.175 860.024 103.903 782.906Z" fill="url(#paint0_linear_1_19)"/>
<g filter="url(#filter0_d_1_19)">
<path d="M512 223.719C671.213 223.719 800.281 352.787 800.281 512C800.281 671.213 671.213 800.281 512 800.281C352.787 800.281 223.719 671.213 223.719 512C223.719 352.787 352.787 223.719 512 223.719Z" fill="#00B896"/>
</g>
<path d="M681.938 540.102V511.801C681.938 418.035 605.733 342 511.748 342C459.955 341.936 410.957 365.488 378.655 405.973M342.062 483.85V512.152C342.062 606.022 418.229 682 512.252 682C563.883 681.925 612.729 658.577 645.213 618.445" stroke="white" stroke-width="56" stroke-miterlimit="10" stroke-linecap="round" stroke-linejoin="round"/>
<path d="M299.263 512L341.05 470.212L384.737 512M724.737 512L682.95 553.788L639.263 512" stroke="white" stroke-width="56" stroke-miterlimit="10" stroke-linecap="round" stroke-linejoin="round"/>
<path d="M1282.5 697.5C1296.5 697.5 1304 691.25 1308.5 676.25L1387.25 407.75H1389.75L1468.5 676.25C1473 691.25 1480.5 697.5 1494.5 697.5C1508 697.5 1515.5 690.75 1519.75 676L1608 362.75C1609.5 357.25 1610 354.25 1610 350.25C1610 338.25 1600.75 329.75 1587.75 329.75C1576.25 329.75 1568.5 336 1565.5 347.75L1494.5 627.75H1492.5L1416.25 354C1411.5 337 1403.5 329.75 1388.75 329.75C1373.5 329.75 1365.5 337 1360.5 355L1284.5 627.75H1282.5L1211.5 347.75C1208.5 336.25 1201 329.75 1189.25 329.75C1176.25 329.75 1167 338.25 1167 350.25C1167 354.25 1167.5 357.25 1169 362.75L1257.25 676C1261.5 690.75 1269 697.5 1282.5 697.5ZM1734.75 698.5C1782.25 698.5 1818.75 678.5 1835.5 643.25C1837.5 638.5 1838.75 634 1838.75 630.5C1838.75 619 1831 611.5 1819.5 611.5C1812.75 611.5 1807.75 614 1803.25 620.25C1783 649.75 1764 660.75 1733 660.75C1686.5 660.75 1657.75 628.25 1657.75 575.75H1820.25C1835.25 575.75 1844.25 566.25 1844.25 550.5C1844.25 479.25 1797.5 429.5 1731 429.5C1659.25 429.5 1613 483 1613 565C1613 649 1658 698.5 1734.75 698.5ZM1658 541.75C1660.75 497 1689.75 467.25 1730.25 467.25C1770.5 467.25 1798.25 496.75 1799.25 541.75H1658ZM1917.5 694H2031.25C2108 694 2153.5 656.25 2153.5 592.75C2153.5 544.75 2122 510.25 2073 504V502C2107.75 495.75 2135.25 460.75 2135.25 423.25C2135.25 369.25 2093.5 333.25 2031.75 333.25H1917.5C1903.75 333.25 1895 342.25 1895 356.5V670.75C1895 685 1903.75 694 1917.5 694ZM1940 488.75V373H2021.5C2065.25 373 2089.75 392.75 2089.75 428.5C2089.75 467.5 2060.75 488.75 2007.5 488.75H1940ZM1940 654.25V527.5H2020.25C2077.75 527.5 2107.25 548.75 2107.25 590.5C2107.25 632.25 2078.75 654.25 2024.5 654.25H1940ZM2306.75 698.5C2354.25 698.5 2390.75 678.5 2407.5 643.25C2409.5 638.5 2410.75 634 2410.75 630.5C2410.75 619 2403 611.5 2391.5 611.5C2384.75 611.5 2379.75 614 2375.25 620.25C2355 649.75 2336 660.75 2305 660.75C2258.5 660.75 2229.75 628.25 2229.75 575.75H2392.25C2407.25 575.75 2416.25 566.25 2416.25 550.5C2416.25 479.25 2369.5 429.5 2303 429.5C2231.25 429.5 2185 483 2185 565C2185 649 2230 698.5 2306.75 698.5ZM2230 541.75C2232.75 497 2261.75 467.25 2302.25 467.25C2342.5 467.25 2370.25 496.75 2371.25 541.75H2230ZM2569.25 698.5C2616.75 698.5 2653.25 678.5 2670 643.25C2672 638.5 2673.25 634 2673.25 630.5C2673.25 619 2665.5 611.5 2654 611.5C2647.25 611.5 2642.25 614 2637.75 620.25C2617.5 649.75 2598.5 660.75 2567.5 660.75C2521 660.75 2492.25 628.25 2492.25 575.75H2654.75C2669.75 575.75 2678.75 566.25 2678.75 550.5C2678.75 479.25 2632 429.5 2565.5 429.5C2493.75 429.5 2447.5 483 2447.5 565C2447.5 649 2492.5 698.5 2569.25 698.5ZM2492.5 541.75C2495.25 497 2524.25 467.25 2564.75 467.25C2605 467.25 2632.75 496.75 2633.75 541.75H2492.5ZM2744.5 785.75C2757.25 785.75 2766.25 776.25 2766.25 762.5V651.75H2767.25C2782.75 680.25 2812.75 698.5 2850 698.5C2915.5 698.5 2960.25 645.5 2960.25 564C2960.25 482.5 2915.25 429.5 2849 429.5C2811.25 429.5 2781 448.75 2765 478H2764V451.5C2764 438.5 2755.5 429.5 2743.5 429.5C2731.25 429.5 2722.75 438.5 2722.75 451.5V762.5C2722.75 776.25 2731.75 785.75 2744.5 785.75ZM2840.5 660.25C2796 660.25 2766 622 2766 564C2766 506.25 2796 467.75 2840.5 467.75C2886.75 467.75 2915.75 505.25 2915.75 564C2915.75 623 2886.75 660.25 2840.5 660.25ZM3234.25 700C3315 700 3367.5 658.25 3367.5 591.5C3367.5 540.5 3337.75 510.5 3262.5 494L3222.5 485.25C3173.25 474.5 3154 455 3154 426.5C3154 389.75 3188.75 367.75 3233.75 367.75C3272.75 367.75 3302.5 383.75 3315 420.25C3319 431.75 3326 437.75 3337.5 437.75C3349.5 437.75 3358 429.75 3358 417.5C3358 412.75 3357.5 409 3356.75 406.25C3343.75 357.5 3295.25 327.25 3235 327.25C3160.25 327.25 3107.75 369 3107.75 428.5C3107.75 479.75 3139 512.5 3211.25 528.25L3251.25 537C3301.25 548 3321.25 568 3321.25 598.25C3321.25 633.75 3285.75 659.5 3236.75 659.5C3191.25 659.5 3155.75 642 3144.75 604.75C3141.25 592.75 3134.25 587 3123 587C3110.25 587 3102.25 596 3102.25 610.25C3102.25 615.5 3103.25 621 3104.75 626C3118.25 669.5 3166.5 700 3234.25 700ZM3438.75 791.25C3481.75 791.25 3503 772 3525.5 712.25L3621.5 461C3623 456.75 3623.75 452.75 3623.75 449.5C3623.75 437.75 3615 429.5 3602.5 429.5C3591.75 429.5 3586 434 3582 445.5L3510 650.5H3509.25L3437.5 445.5C3433.5 434 3427 429.5 3416.75 429.5C3404.25 429.5 3395 437.5 3395 449.5C3395 452.75 3395.75 456.75 3397.25 461L3486.75 694.25L3480.75 712.5C3470.5 744 3454.75 754 3438.25 754C3431.5 754 3429.75 753.75 3423.5 753.75C3412.5 753.75 3406 760.25 3406 769.75C3406 783.5 3417.75 791.25 3438.75 791.25ZM3684 698.5C3696.75 698.5 3705.75 689 3705.75 675.25V541C3705.75 497 3732.5 468 3773.5 468C3813.5 468 3833.25 491 3833.25 533V675.25C3833.25 689 3842.25 698.5 3855 698.5C3867.75 698.5 3876.75 689 3876.75 675.25V525.25C3876.75 466.25 3843.75 429.5 3786.75 429.5C3746.5 429.5 3718.75 447.5 3704.25 475.5H3703.25V451.5C3703.25 438.5 3694.75 429.5 3682.75 429.5C3670.75 429.5 3662.25 438.5 3662.25 451.5V675.25C3662.25 689 3671.25 698.5 3684 698.5ZM4039.5 698.5C4086.75 698.5 4128 672.5 4140.5 636.5C4141.75 632.5 4142.5 628.75 4142.5 625.5C4142.5 614.25 4135 606.5 4123.75 606.5C4114.25 606.5 4109.5 610 4103.25 621.75C4089.75 646.75 4070.75 660.25 4039.5 660.25C3994.75 660.25 3963.75 623.75 3963.75 564C3963.75 505.75 3994.25 467.75 4039.5 467.75C4069.5 467.75 4089.25 480.5 4103 506.25C4109 517.5 4114.25 521.5 4123.75 521.5C4135 521.5 4142.25 514 4142.25 502.5C4142.25 499.75 4141.75 496.5 4140.75 493.25C4130.75 457.25 4088 429.5 4039 429.5C3967 429.5 3919.5 482.75 3919.5 564.5C3919.5 646.75 3967.5 698.5 4039.5 698.5Z" fill="white"/>
<defs>
<filter id="filter0_d_1_19" x="195.719" y="199.719" width="632.562" height="632.562" filterUnits="userSpaceOnUse" color-interpolation-filters="sRGB">
<feFlood flood-opacity="0" result="BackgroundImageFix"/>
<feColorMatrix in="SourceAlpha" type="matrix" values="0 0 0 0 0 0 0 0 0 0 0 0 0 0 0 0 0 0 127 0" result="hardAlpha"/>
<feOffset dy="4"/>
<feGaussianBlur stdDeviation="14"/>
<feComposite in2="hardAlpha" operator="out"/>
<feColorMatrix type="matrix" values="0 0 0 0 0 0 0 0 0 0 0 0 0 0 0 0 0 0 0.18 0"/>
<feBlend mode="normal" in2="BackgroundImageFix" result="effect1_dropShadow_1_19"/>
<feBlend mode="normal" in="SourceGraphic" in2="effect1_dropShadow_1_19" result="shape"/>
</filter>
<linearGradient id="paint0_linear_1_19" x1="513.444" y1="921.095" x2="510.556" y2="102.904" gradientUnits="userSpaceOnUse">
<stop stop-color="#F5F5F5"/>
<stop offset="1" stop-color="white"/>
</linearGradient>
</defs>
</svg>
